<?xml version="1.0" standalone="no"?>
<!DOCTYPE svg PUBLIC "-//W3C//DTD SVG 1.1//EN" "http://www.w3.org/Graphics/SVG/1.1/DTD/svg11.dtd" >
<svg>
<metadata>
Created by FontForge 20120731 at Wed Jun 11 13:08:22 2014
 By World Wide Web Server
a_Futurica *Arsenal Company (c)1997* FAX: (095)924-3775; e-Mail: arsenal@itco.msk.su; Phone: (095)924-5811 (Design and Featuring W.Chufarofsky &#38; M.Slutsker)
</metadata>
<defs>
<font id="AFuturicaMedium" horiz-adv-x="1235" >
  <font-face 
    font-family="a_FuturicaMedium"
    font-weight="500"
    font-stretch="normal"
    units-per-em="2048"
    panose-1="2 11 5 2 2 2 4 2 3 3"
    ascent="1638"
    descent="-410"
    x-height="969"
    cap-height="1544"
    bbox="-84 -584 2558 2070"
    underline-thickness="160"
    underline-position="-253"
    unicode-range="U+0020-2219"
  />
<missing-glyph horiz-adv-x="1024" 
d="M128 0v2070h768v-2070h-768zM256 128h512v1814h-512v-1814z" />
    <glyph glyph-name=".notdef" horiz-adv-x="1024" 
d="M128 0v2070h768v-2070h-768zM256 128h512v1814h-512v-1814z" />
    <glyph glyph-name=".null" horiz-adv-x="0" 
 />
    <glyph glyph-name="nonmarkingreturn" horiz-adv-x="616" 
 />
    <glyph glyph-name="space" unicode=" " horiz-adv-x="616" 
 />
    <glyph glyph-name="exclam" unicode="!" horiz-adv-x="690" 
d="M461 393h-232v1151h232v-1151zM492 113q0 -60 -43.5 -104t-104.5 -44q-60 0 -102.5 44t-42.5 104t42.5 102.5t102.5 42.5q61 0 104.5 -42t43.5 -103z" />
    <glyph glyph-name="quotedbl" unicode="&#x22;" horiz-adv-x="928" 
d="M764 1544l-43 -657h-150l-43 657h236zM399 1544l-41 -657h-151l-43 657h235z" />
    <glyph glyph-name="numbersign" unicode="#" 
d="M1165 893h-219l-55 -299h196v-180h-229l-76 -414h-170l76 414h-246l-75 -414h-170l75 414h-202v180h235l55 299h-210v180h243l72 402h172l-74 -402h244l74 402h172l-74 -402h186v-180zM774 893h-244l-55 -299h244z" />
    <glyph glyph-name="dollar" unicode="$" 
d="M1122 461q0 -196 -115 -329t-309 -161v-178h-131v178q-328 21 -438 316l178 125q28 -105 110.5 -167.5t196.5 -62.5q118 0 192 77q73 74 73 187q0 182 -297 285q-210 73 -305 170q-97 101 -97 254q0 165 114 284q109 114 273 136v151h131v-151q215 -12 361 -195
l-154 -151q-103 135 -248 135q-99 0 -165 -57.5t-66 -139.5q0 -75 62 -125t227 -108q215 -76 311 -188t96 -285z" />
    <glyph glyph-name="percent" unicode="%" horiz-adv-x="1741" 
d="M1696 338q0 -160 -102.5 -265.5t-260.5 -105.5t-265 104.5t-107 258.5q0 160 105 266t265 106q154 0 259.5 -105t105.5 -259zM1421 1530l-960 -1598l-144 76l967 1591zM780 1227q0 -160 -102 -264.5t-260 -104.5t-265.5 104t-107.5 257q0 158 105.5 262t265.5 104
q154 0 259 -103t105 -255zM1493 328q0 86 -47 145t-113 59q-71 0 -119.5 -60t-48.5 -144t48 -138.5t118 -54.5q66 0 114 56.5t48 136.5zM578 1217q0 84 -47 142t-113 58q-72 0 -120 -56t-48 -140q0 -81 48.5 -138t117.5 -57q66 0 114 56t48 135z" />
    <glyph glyph-name="ampersand" unicode="&#x26;" horiz-adv-x="1505" 
d="M1522 0h-301q-8 8 -158 188q-230 -223 -471 -223q-220 0 -359 139q-129 129 -129 308q0 145 70.5 237t296.5 240q-35 36 -76 90q-88 105 -88 242q0 162 108 261q105 97 273 97q167 0 274 -86q115 -91 115 -248q0 -196 -280 -389q9 -14 143.5 -176t146.5 -174
q13 12 93.5 104t93.5 109l147 -150q-88 -102 -194 -221q134 -160 295 -348zM866 1245q0 72 -48 113t-124 41q-65 0 -110 -41q-49 -44 -49 -113q0 -84 137 -244q111 75 150 123q44 53 44 121zM924 354q-153 181 -322 381q-163 -109 -217 -174q-47 -56 -47 -129
q0 -101 82 -176.5t182 -75.5q74 0 163 46q96 49 159 128z" />
    <glyph glyph-name="quotesingle" unicode="'" horiz-adv-x="512" 
d="M375 1544l-43 -657h-152l-41 657h236z" />
    <glyph glyph-name="parenleft" unicode="(" horiz-adv-x="639" 
d="M530 -365l-168 -81q-239 450 -239 1032q0 586 239 1032l168 -82q-80 -149 -132 -393q-58 -271 -58 -557q0 -288 57 -557q52 -244 133 -394z" />
    <glyph glyph-name="parenright" unicode=")" horiz-adv-x="639" 
d="M516 586q0 -591 -240 -1032l-167 81q80 148 133 393q57 270 57 558t-57 556q-52 244 -133 394l167 82q240 -444 240 -1032z" />
    <glyph glyph-name="asterisk" unicode="*" horiz-adv-x="1024" 
d="M834 1118l-74 -131l-176 105v-203h-146v203l-172 -105l-76 131l179 99l-179 98l76 131l172 -103v201h150v-201l172 103l74 -131l-177 -98z" />
    <glyph glyph-name="plus" unicode="+" 
d="M1104 426h-383v-387h-207v387h-385v207h385v383h207v-383h383v-207z" />
    <glyph glyph-name="comma" unicode="," horiz-adv-x="612" 
d="M473 227l-295 -571l-141 37l211 581z" />
    <glyph glyph-name="hyphen" unicode="-" horiz-adv-x="725" 
d="M604 563h-481v189h481v-189z" />
    <glyph glyph-name="hyphen" unicode="&#x2010;" horiz-adv-x="725" 
d="M604 563h-481v189h481v-189z" />
    <glyph glyph-name="period" unicode="." horiz-adv-x="612" 
d="M453 111q0 -59 -42.5 -102.5t-103.5 -43.5q-59 0 -102 43t-43 103t42.5 102.5t102.5 42.5t103 -42.5t43 -102.5z" />
    <glyph glyph-name="slash" unicode="/" horiz-adv-x="1016" 
d="M1016 1710l-836 -1952l-180 49l838 1954z" />
    <glyph glyph-name="zero" unicode="0" 
d="M1184 772q0 -352 -159.5 -581.5t-408.5 -229.5q-248 0 -406.5 229t-158.5 582q0 352 159.5 581.5t407.5 229.5t407 -229t159 -582zM948 772q0 263 -91.5 431.5t-240.5 168.5q-146 0 -237.5 -168.5t-91.5 -431.5q0 -262 91.5 -430t239.5 -168t239 167.5t91 430.5z" />
    <glyph glyph-name="one" unicode="1" 
d="M1022 0h-782v211h282v1120h-225l45 213h416v-1333h264v-211z" />
    <glyph glyph-name="two" unicode="2" 
d="M1137 0h-1063l667 803q144 173 144 293q0 114 -78.5 194t-190.5 80q-111 0 -180.5 -76t-75.5 -200h-249q17 224 146 354q133 135 351 135q217 0 364.5 -138t147.5 -343q0 -182 -119 -324q-8 -22 -221 -276t-250 -287h607v-215z" />
    <glyph glyph-name="three" unicode="3" 
d="M1130 436q0 -203 -145.5 -339t-363.5 -136q-232 0 -377 129q-142 125 -142 320h236q18 -240 280 -240q118 0 196.5 80.5t78.5 200.5q0 125 -71 200q-74 78 -204 78h-75v180h47q272 0 272 228q0 108 -67.5 175.5t-178.5 67.5q-97 0 -162 -62q-61 -59 -69 -149h-233
q22 197 146.5 305.5t334.5 108.5q201 0 329 -118.5t128 -305.5q0 -233 -189 -340q104 -41 165 -141q64 -103 64 -242z" />
    <glyph glyph-name="four" unicode="4" 
d="M1184 252h-178v-252h-228v252h-753l981 1327v-1130h178v-197zM778 449v522l-372 -522h372z" />
    <glyph glyph-name="five" unicode="5" 
d="M1112 506q0 -234 -168 -389.5t-418 -155.5q-275 0 -452 180l94 215q54 -79 152.5 -129.5t203.5 -50.5q144 0 247 100t103 242q0 153 -102 248.5t-264 95.5q-175 0 -293 -121l-27 4l131 799h707v-213h-522l-43 -299q91 21 149 21q226 0 364 -150t138 -397z" />
    <glyph glyph-name="six" unicode="6" 
d="M1159 487q0 -224 -155.5 -375t-387.5 -151q-230 0 -384 139q-160 145 -160 375q0 130 63 256q64 130 256 383l346 457l211 -74l-334 -432q-29 -40 -86 -119q80 37 177 37q189 0 321.5 -144t132.5 -352zM924 461q0 144 -84 231.5t-224 87.5q-122 0 -216 -90
q-97 -92 -97 -219q0 -136 92 -222q87 -83 217 -83q129 0 220.5 86t91.5 209z" />
    <glyph glyph-name="seven" unicode="7" 
d="M1235 1544l-807 -1579l-229 68l661 1298h-772v213h1147z" />
    <glyph glyph-name="eight" unicode="8" 
d="M1126 416q0 -207 -149 -333q-142 -122 -359 -122q-214 0 -358 125q-149 128 -149 330q0 138 70.5 243.5t187.5 145.5q-213 116 -213 358q0 186 130.5 303t331.5 117q198 0 329.5 -118.5t131.5 -301.5q0 -245 -213 -358q118 -43 191 -158q69 -109 69 -231zM858 1151
q0 104 -69 173t-171 69q-104 0 -172.5 -68.5t-68.5 -173.5q0 -107 67.5 -175.5t173.5 -68.5q100 0 170 70.5t70 173.5zM891 434q0 110 -80 190.5t-190 80.5q-114 0 -194.5 -79t-80.5 -192q0 -117 76 -190.5t199 -73.5q117 0 193.5 74t76.5 190z" />
    <glyph glyph-name="nine" unicode="9" 
d="M1182 1069q0 -131 -63.5 -258.5t-256.5 -380.5l-354 -465l-211 74l346 448q41 54 82 113q-81 -39 -176 -39q-189 0 -322 145t-133 353q0 224 155.5 374t387.5 150q230 0 385 -139q160 -145 160 -375zM948 1075q0 136 -91 221q-87 82 -216 82t-220 -86t-91 -209
q0 -145 83.5 -232t223.5 -87q121 0 216 92t95 219z" />
    <glyph glyph-name="colon" unicode=":" horiz-adv-x="612" 
d="M453 864q0 -60 -43 -102.5t-103 -42.5t-102.5 42.5t-42.5 102.5q0 59 43 102.5t102 43.5q60 0 103 -43t43 -103zM453 111q0 -59 -43 -102.5t-103 -43.5t-102.5 43t-42.5 103t42.5 102.5t102.5 42.5t103 -42.5t43 -102.5z" />
    <glyph glyph-name="semicolon" unicode=";" horiz-adv-x="612" 
d="M487 864q0 -60 -42.5 -102.5t-102.5 -42.5t-102.5 42.5t-42.5 102.5q0 59 42 102.5t103 43.5q60 0 102.5 -43t42.5 -103zM473 227l-295 -571l-141 37l211 581z" />
    <glyph glyph-name="less" unicode="&#x3c;" 
d="M1137 31l-1039 411v166l1039 414v-221l-736 -275l736 -276v-219z" />
    <glyph glyph-name="equal" unicode="=" 
d="M1116 614h-997v207h997v-207zM1116 229h-997v207h997v-207z" />
    <glyph glyph-name="greater" unicode="&#x3e;" 
d="M1137 442l-1039 -411v219l736 276l-736 275v221l1039 -414v-166z" />
    <glyph glyph-name="question" unicode="?" horiz-adv-x="965" 
d="M874 1204q0 -124 -63 -197q-68 -81 -260 -163q-174 -75 -174 -164q0 -107 106 -107q117 0 117 125h234v-14q0 -132 -90 -215q-98 -90 -269 -90q-163 0 -253 91q-83 84 -83 220q0 111 83 190q64 60 220 134q112 53 152.5 90.5t40.5 85.5q0 172 -154 172
q-68 0 -110.5 -39.5t-42.5 -105.5q0 -29 10 -52h-238q-12 44 -12 88q0 143 124 238q118 90 282 90q178 0 284 -116q96 -105 96 -261zM629 115q0 -62 -44 -107t-106 -45q-64 0 -107.5 45t-43.5 107t43.5 106.5t105.5 44.5q64 0 108 -44.5t44 -106.5z" />
    <glyph glyph-name="at" unicode="@" horiz-adv-x="1749" 
d="M1686 928q0 -240 -151 -428q-146 -183 -318 -183q-103 0 -138 127q-42 -48 -119 -83q-91 -42 -184 -42q-143 0 -247 104q-111 111 -111 286q0 185 123 327q132 154 331 154q77 0 159 -36q92 -41 124 -103l27 98h170l-125 -584q-8 -37 -8 -65q0 -23 30 -23q86 0 168 137
q86 145 86 324q0 194 -168 333q-172 142 -420 142q-274 0 -468 -186q-197 -188 -197 -457q0 -325 202 -492q173 -143 455 -143q145 0 276 30q121 27 175 66l166 -127q-59 -50 -222 -92q-181 -45 -370 -45q-410 0 -637 213.5t-227 599.5q0 320 246 558q251 243 601 243
q330 0 554 -195q217 -190 217 -458zM1096 815q0 88 -59 145.5t-154 57.5q-117 0 -198 -94q-77 -90 -77 -207q0 -105 66 -165q58 -52 145 -52q133 0 210 101q67 89 67 214z" />
    <glyph glyph-name="A" unicode="A" horiz-adv-x="1468" 
d="M1493 0h-270l-162 365h-653l-164 -365h-269l758 1622zM967 575l-234 529l-231 -529h465z" />
    <glyph glyph-name="B" unicode="B" horiz-adv-x="1149" 
d="M1092 440q0 -440 -560 -440h-401v1544h338q489 0 489 -418q0 -201 -180 -288q148 -38 231 -143.5t83 -254.5zM731 1112q0 229 -289 229h-69v-454h96q121 0 191.5 58.5t70.5 166.5zM852 449q0 251 -356 251h-123v-497h137q342 0 342 246z" />
    <glyph glyph-name="C" unicode="C" horiz-adv-x="1358" 
d="M1262 66q-202 -101 -383 -101q-372 0 -598 223t-226 584q0 358 236 584q232 223 590 223q217 0 379 -98v-285q-158 158 -396 158q-240 0 -398 -157q-165 -163 -165 -425q0 -268 164 -428q156 -154 399 -154q223 0 398 162v-286z" />
    <glyph glyph-name="D" unicode="D" horiz-adv-x="1409" 
d="M1356 772q0 -356 -227 -563q-230 -209 -637 -209h-361v1544h373q392 0 626 -220q226 -213 226 -552zM1110 774q0 254 -171 404q-174 153 -478 153h-88v-1116h80q315 0 486 143.5t171 415.5z" />
    <glyph glyph-name="E" unicode="E" horiz-adv-x="1073" 
d="M975 1331h-602v-393h579v-213h-579v-510h600v-215h-842v1544h844v-213z" />
    <glyph glyph-name="F" unicode="F" horiz-adv-x="971" 
d="M915 1331h-540v-393h504v-215h-504v-723h-242v1544h782v-213z" />
    <glyph glyph-name="G" unicode="G" horiz-adv-x="1642" 
d="M1591 735q0 -345 -204.5 -557.5t-536.5 -212.5q-339 0 -565 225q-230 229 -230 582q0 338 236 572.5t575 234.5q196 0 368.5 -88.5t274.5 -239.5l-192 -135q-175 250 -451 250q-237 0 -402 -172t-165 -422q0 -258 166 -429q161 -167 391 -167q184 0 321 116
q142 120 142 298h-399v205h671v-60z" />
    <glyph glyph-name="H" unicode="H" horiz-adv-x="1444" 
d="M1313 0h-242v717h-698v-717h-242v1544h242v-614h698v614h242v-1544z" />
    <glyph glyph-name="I" unicode="I" horiz-adv-x="512" 
d="M377 0h-242v1544h242v-1544z" />
    <glyph glyph-name="J" unicode="J" horiz-adv-x="649" 
d="M514 408q0 -231 -85 -337t-277 -106q-139 0 -236 76l84 197q68 -54 131 -54q75 0 108 50q35 54 35 182v1128h240v-1136z" />
    <glyph glyph-name="K" unicode="K" horiz-adv-x="1303" 
d="M1321 0h-320l-626 762v-762h-242v1544h242v-684l616 684h309l-684 -727z" />
    <glyph glyph-name="L" unicode="L" horiz-adv-x="860" 
d="M842 0h-709v1544h242v-1329h467v-215z" />
    <glyph glyph-name="M" unicode="M" horiz-adv-x="1690" 
d="M1696 0h-254l-142 874l-456 -913l-457 913l-141 -874h-252l280 1587l570 -1141l569 1141z" />
    <glyph glyph-name="N" unicode="N" horiz-adv-x="1554" 
d="M1423 -37l-1061 1061v-1024h-231v1581l1063 -1059v1022h229v-1581z" />
    <glyph glyph-name="O" unicode="O" horiz-adv-x="1749" 
d="M1694 772q0 -332 -240.5 -569.5t-579.5 -237.5q-338 0 -578.5 237t-240.5 570q0 332 240 569.5t579 237.5q338 0 579 -237t241 -570zM1450 772q0 244 -166.5 412t-409.5 168q-241 0 -407 -168t-166 -412t165 -410.5t408 -166.5t409.5 166.5t166.5 410.5z" />
    <glyph glyph-name="P" unicode="P" horiz-adv-x="1106" 
d="M1061 1092q0 -229 -142.5 -352.5t-400.5 -123.5h-143v-616h-242v1544h338q590 0 590 -452zM819 1085q0 252 -364 252h-80v-514h94q350 0 350 262z" />
    <glyph glyph-name="Q" unicode="Q" horiz-adv-x="1749" 
d="M1694 774q0 -329 -236 -565l207 -221l-252 -33l-119 127q-185 -115 -420 -115q-338 0 -578.5 237t-240.5 570q0 332 240 569.5t579 237.5q338 0 579 -237t241 -570zM1450 774q0 244 -166.5 412t-409.5 168q-241 0 -407 -168t-166 -412t165 -410.5t408 -166.5
q147 0 259 59l-302 313l256 35l211 -223q152 162 152 393z" />
    <glyph glyph-name="R" unicode="R" horiz-adv-x="1149" 
d="M1167 0h-297l-426 629l-71 4v-633h-242v1544h367q257 0 400.5 -116t143.5 -330q0 -163 -91 -279q-98 -125 -271 -155zM807 1085q0 256 -367 256h-67v-518h80q354 0 354 262z" />
    <glyph glyph-name="S" unicode="S" horiz-adv-x="1139" 
d="M1073 461q0 -219 -141.5 -357.5t-372.5 -138.5q-162 0 -286 80q-134 85 -193 242l178 125q28 -105 110.5 -167.5t196.5 -62.5q118 0 192 77q72 74 72 187q0 182 -297 285q-210 73 -304 170q-97 101 -97 254q0 184 135 304t340 120q246 0 404 -199l-154 -151
q-103 135 -248 135q-99 0 -165 -57.5t-66 -139.5q0 -75 62 -125t227 -108q215 -76 311 -188t96 -285z" />
    <glyph glyph-name="T" unicode="T" horiz-adv-x="1008" 
d="M995 1331h-370v-1331h-240v1331h-371v213h981v-213z" />
    <glyph glyph-name="U" unicode="U" horiz-adv-x="1430" 
d="M1307 569q0 -278 -161 -441t-431 -163t-431 162.5t-161 441.5v975h242v-932q0 -428 350 -428q352 0 352 428v932h240v-975z" />
    <glyph glyph-name="V" unicode="V" horiz-adv-x="1303" 
d="M1327 1544l-676 -1583l-676 1583h265l411 -1046l412 1046h264z" />
    <glyph glyph-name="W" unicode="W" horiz-adv-x="2028" 
d="M2048 1544l-575 -1583l-459 1063l-459 -1063l-575 1583h258l342 -987l434 1022l434 -1022l342 987h258z" />
    <glyph glyph-name="X" unicode="X" horiz-adv-x="1284" 
d="M1288 0h-276l-367 604l-373 -604h-276l512 813l-442 731h284l295 -524l307 524h283l-451 -731z" />
    <glyph glyph-name="Y" unicode="Y" horiz-adv-x="1241" 
d="M1260 1544l-519 -856v-688h-241v688l-518 856h280l359 -604l358 604h281z" />
    <glyph glyph-name="Z" unicode="Z" horiz-adv-x="1180" 
d="M1157 1544l-754 -1329h719v-215h-1116l756 1331h-662v213h1057z" />
    <glyph glyph-name="bracketleft" unicode="[" horiz-adv-x="639" 
d="M528 -463h-415v2157h415v-183h-206v-1792h206v-182z" />
    <glyph glyph-name="backslash" unicode="\" horiz-adv-x="1016" 
d="M1016 -96l-193 -17l-823 1856l193 18z" />
    <glyph glyph-name="bracketright" unicode="]" horiz-adv-x="639" 
d="M526 -463h-415v182h204v1792h-204v183h415v-2157z" />
    <glyph glyph-name="asciicircum" unicode="^" horiz-adv-x="1024" 
d="M940 1110h-221l-207 287l-207 -287h-221l311 469h234z" />
    <glyph glyph-name="underscore" unicode="_" horiz-adv-x="1024" 
d="M1036 -385h-1048v156h1048v-156z" />
    <glyph glyph-name="grave" unicode="`" horiz-adv-x="768" 
d="M612 1200l-106 -63l-350 317l198 117z" />
    <glyph glyph-name="a" unicode="a" horiz-adv-x="1192" 
d="M1069 0h-221v147q-129 -182 -334 -182q-199 0 -331 148.5t-132 369.5q0 223 131.5 369.5t333.5 146.5q211 0 332 -180v150h221v-969zM852 483q0 146 -83 232q-79 84 -208 84q-121 0 -200.5 -89.5t-79.5 -226.5q0 -139 79.5 -228t206.5 -89q126 0 205.5 88.5t79.5 228.5z
" />
    <glyph glyph-name="b" unicode="b" horiz-adv-x="1192" 
d="M1141 485q0 -220 -131 -370t-328 -150q-211 0 -342 182v-147h-217v1618h225v-680q0 -89 -4 -121q131 182 336 182q201 0 331 -146t130 -368zM913 485q0 137 -79.5 225.5t-204.5 88.5q-124 0 -206.5 -87t-82.5 -225q0 -141 80.5 -231t208.5 -90q126 0 205 90t79 229z" />
    <glyph glyph-name="c" unicode="c" horiz-adv-x="918" 
d="M836 29q-115 -62 -261 -62q-223 0 -372.5 147.5t-149.5 368.5q0 217 148.5 366.5t367.5 149.5q167 0 267 -61v-225q-96 90 -254 90q-124 0 -213.5 -95t-89.5 -227t85 -222.5t211 -90.5q147 0 261 86v-225z" />
    <glyph glyph-name="d" unicode="d" horiz-adv-x="1192" 
d="M1069 0h-217v147q-131 -182 -342 -182q-197 0 -328 150t-131 370q0 222 130 368t331 146q205 0 336 -182q-4 32 -4 121v680h225v-1618zM852 487q0 138 -82.5 225t-206.5 87q-125 0 -204.5 -88.5t-79.5 -225.5q0 -139 79 -229t205 -90q128 0 208.5 90t80.5 231z" />
    <glyph glyph-name="e" unicode="e" horiz-adv-x="1124" 
d="M1077 457h-796q0 -125 80 -205t202 -80q216 0 318 164l184 -109q-162 -260 -496 -260q-236 0 -377 143.5t-141 381.5q0 224 144.5 365.5t373.5 141.5q235 0 375 -144q133 -137 133 -351v-47zM842 610q-36 201 -269 201q-214 0 -280 -201h549z" />
    <glyph glyph-name="f" unicode="f" horiz-adv-x="569" 
d="M569 768h-194v-768h-228v768h-127v201h127v323q0 192 68.5 276.5t230.5 84.5q53 0 123 -35v-203q-71 31 -114 31q-80 0 -80 -158v-319h194v-201z" />
    <glyph glyph-name="g" unicode="g" horiz-adv-x="1192" 
d="M1069 -27q0 -557 -491 -557q-211 0 -336.5 103t-153.5 291l236 38q9 -239 268 -239q256 0 256 328v208q-137 -174 -340 -174q-200 0 -328.5 145t-128.5 367q0 223 129.5 369.5t331.5 146.5q212 0 336 -182v152h221v-996zM858 487q0 117 -79 211q-87 105 -220 105
q-126 0 -204 -92q-74 -90 -74 -228q0 -143 77 -229t209 -86q121 0 207 97q84 94 84 222z" />
    <glyph glyph-name="h" unicode="h" horiz-adv-x="1118" 
d="M999 0h-225v565q0 242 -162 242q-110 0 -182 -73q-82 -83 -82 -238v-496h-225v1618h225v-780q107 161 303 161q348 0 348 -401v-598z" />
    <glyph glyph-name="i" unicode="i" horiz-adv-x="471" 
d="M379 1386q0 -58 -44 -101.5t-102 -43.5q-57 0 -100 43.5t-43 101.5q0 57 42.5 100.5t100.5 43.5q59 0 102.5 -43t43.5 -101zM348 0h-225v969h225v-969z" />
    <glyph glyph-name="j" unicode="j" horiz-adv-x="471" 
d="M379 1386q0 -58 -44 -101.5t-102 -43.5q-57 0 -100 43.5t-43 101.5q0 57 42.5 100.5t100.5 43.5q59 0 102.5 -43t43.5 -101zM348 -547h-225v1516h225v-1516z" />
    <glyph glyph-name="k" unicode="k" horiz-adv-x="1030" 
d="M1055 0h-305l-402 434v-434h-225v1618h225v-1010l363 361h303l-463 -439z" />
    <glyph glyph-name="l" unicode="l" horiz-adv-x="475" 
d="M350 0h-225v1618h225v-1618z" />
    <glyph glyph-name="m" unicode="m" horiz-adv-x="1649" 
d="M1530 0h-225v565q0 242 -160 242q-205 0 -205 -289v-518h-225v565q0 242 -168 242q-199 0 -199 -311v-496h-225v969h221v-131q105 161 277 161q101 0 181 -54q71 -47 105 -120q102 174 297 174q326 0 326 -401v-598z" />
    <glyph glyph-name="n" unicode="n" horiz-adv-x="1118" 
d="M999 0h-225v565q0 242 -194 242q-232 0 -232 -311v-496h-225v969h221v-131q113 161 307 161q348 0 348 -401v-598z" />
    <glyph glyph-name="o" unicode="o" horiz-adv-x="1163" 
d="M1114 483q0 -214 -152 -364q-155 -152 -380 -152q-227 0 -380 150.5t-153 365.5q0 214 153 365t380 151q225 0 380 -152q152 -150 152 -364zM885 483q0 128 -88 218t-215 90t-214 -90t-87 -218t87 -217.5t214 -89.5t215 89t88 218z" />
    <glyph glyph-name="p" unicode="p" horiz-adv-x="1192" 
d="M1141 485q0 -224 -130.5 -372t-332.5 -148q-119 0 -219 68q-63 43 -115 114q0 -7 2 -64.5t2 -72.5v-563h-225v1522h221v-152q128 182 334 182q199 0 331 -147t132 -367zM909 487q0 136 -79 224t-205 88q-122 0 -203.5 -89.5t-81.5 -224.5q0 -139 80.5 -229t208.5 -90
q124 0 202 90.5t78 230.5z" />
    <glyph glyph-name="q" unicode="q" horiz-adv-x="1192" 
d="M1069 -553h-227v565q0 13 2 70.5t2 64.5q-131 -182 -334 -182q-201 0 -331 147.5t-130 372.5q0 220 131 367t330 147q205 0 334 -182v152h223v-1522zM850 485q0 135 -81.5 224.5t-203.5 89.5q-126 0 -205 -87.5t-79 -224.5q0 -139 78 -230t202 -91q128 0 208.5 89.5
t80.5 229.5z" />
    <glyph glyph-name="r" unicode="r" horiz-adv-x="762" 
d="M743 969l-51 -213q-47 30 -108 30q-103 0 -167 -78q-67 -82 -67 -227v-481h-225v969h219v-162q107 188 270 188q62 0 129 -26z" />
    <glyph glyph-name="s" unicode="s" horiz-adv-x="838" 
d="M772 297q0 -140 -105 -235t-261 -95q-211 0 -347 170l134 144q94 -127 215 -127q58 0 98.5 34.5t40.5 87.5t-38 81.5t-171 80.5q-109 43 -160 94q-67 67 -67 175q0 126 97 211q94 81 228 81q173 0 271 -125l-119 -137q-72 80 -154 80q-48 0 -78 -27t-30 -65q0 -39 33 -65
q38 -30 145 -68q268 -95 268 -295z" />
    <glyph glyph-name="t" unicode="t" horiz-adv-x="512" 
d="M512 768h-150v-768h-225v768h-117v201h117v417h225v-417h150v-201z" />
    <glyph glyph-name="u" unicode="u" horiz-adv-x="1118" 
d="M1001 395q0 -201 -110 -312q-114 -116 -332 -116q-211 0 -326.5 118t-115.5 333v551h225v-533q0 -270 217 -270t217 268v535h225v-574z" />
    <glyph glyph-name="v" unicode="v" horiz-adv-x="934" 
d="M958 969l-491 -1004l-492 1004h248l244 -549l244 549h247z" />
    <glyph glyph-name="w" unicode="w" horiz-adv-x="1487" 
d="M1507 969l-436 -1004l-328 619l-329 -619l-434 1004h237l225 -563l299 595l4 -4l297 -591l226 563h239z" />
    <glyph glyph-name="x" unicode="x" horiz-adv-x="1118" 
d="M1137 0h-277l-303 367l-293 -367h-282l446 526l-358 443h272l215 -285l231 285h283l-369 -443z" />
    <glyph glyph-name="y" unicode="y" horiz-adv-x="1067" 
d="M1092 969l-697 -1522h-241l284 625l-438 897h252l303 -652l291 652h246z" />
    <glyph glyph-name="z" unicode="z" horiz-adv-x="952" 
d="M940 969l-532 -766h503v-203h-907l535 768h-471v201h872z" />
    <glyph glyph-name="braceleft" unicode="{" horiz-adv-x="768" 
d="M670 -463h-160q-227 0 -227 236v481q0 136 -31 199q-35 73 -121 73h-33v179h33q152 0 152 274v479q0 236 227 236h160v-189h-107q-71 0 -71 -106v-445q0 -276 -156 -338q156 -60 156 -337v-447q0 -106 71 -106h107v-189z" />
    <glyph glyph-name="bar" unicode="|" horiz-adv-x="768" 
d="M487 -426h-206v2062h206v-2062z" />
    <glyph glyph-name="braceright" unicode="}" horiz-adv-x="768" 
d="M670 526h-33q-86 0 -121 -73q-31 -63 -31 -199v-481q0 -236 -227 -236h-160v189h107q71 0 71 106v447q0 277 156 337q-156 62 -156 338v445q0 106 -71 106h-107v189h160q227 0 227 -236v-479q0 -274 152 -274h33v-179z" />
    <glyph glyph-name="asciitilde" unicode="~" 
d="M1159 582q-154 -269 -325 -269q-87 0 -239.5 105.5t-186.5 105.5q-88 0 -181 -172l-149 117q149 270 323 270q86 0 238 -105.5t188 -105.5q79 0 181 170z" />
    <glyph glyph-name="currency" unicode="&#xa4;" 
d="M1141 188l-144 -149l-178 182q-107 -45 -203 -45q-84 0 -200 45l-178 -182l-146 149l174 179q-61 101 -61 211q0 112 61 213l-174 178l146 147l178 -182q112 47 200 47q84 0 201 -49l180 184l144 -147l-172 -178q63 -109 63 -213q0 -96 -61 -197zM809 582q0 94 -52 144
t-136 50q-85 0 -136 -49q-55 -52 -55 -145q0 -97 54 -150q51 -51 137 -51q83 0 134 51q54 55 54 150z" />
    <glyph glyph-name="brokenbar" unicode="&#xa6;" horiz-adv-x="768" 
d="M487 778h-206v858h206v-858zM487 -426h-206v860h206v-860z" />
    <glyph glyph-name="section" unicode="&#xa7;" 
d="M1147 647q0 -180 -195 -332q92 -84 92 -219q0 -170 -135 -277q-131 -104 -327 -104q-176 0 -299 90q-132 97 -150 263l197 43q29 -211 262 -211q87 0 152 45q73 52 73 135q0 112 -168 196l-287 144q-272 136 -272 383q0 180 195 332q-92 84 -92 219q0 170 122 277
q118 104 297 104q164 0 278 -90q123 -97 136 -263l-201 -43q-33 211 -219 211q-70 0 -124 -45q-62 -52 -62 -135q0 -110 168 -196l284 -146q275 -140 275 -381zM934 614q0 154 -135 222l-387 194q-109 -79 -109 -196q0 -154 135 -222l387 -194q109 81 109 196z" />
    <glyph glyph-name="copyright" unicode="&#xa9;" horiz-adv-x="2048" 
d="M1831 778q0 -333 -237 -570t-570 -237q-334 0 -570.5 236t-236.5 569t237 570t570 237q334 0 570.5 -236t236.5 -569zM1688 776q0 272 -195 467t-469 195q-275 0 -470.5 -194.5t-195.5 -467.5q0 -274 195 -467.5t471 -193.5q275 0 469.5 194t194.5 467zM1438 629
q-27 -150 -135 -234q-103 -80 -250 -80q-191 0 -317 129.5t-126 333.5q0 206 121.5 335.5t327.5 129.5q142 0 246 -82t131 -223h-140q-33 168 -241 168q-142 0 -223 -94q-78 -89 -78 -232q0 -142 78 -232q82 -95 225 -95q199 0 239 176h142z" />
    <glyph glyph-name="guillemotleft" unicode="&#xab;" horiz-adv-x="1073" 
d="M983 258l-135 -96l-369 493l369 496l135 -98l-295 -398zM565 258l-135 -96l-371 493l369 496l135 -98l-293 -398z" />
    <glyph glyph-name="logicalnot" unicode="&#xac;" horiz-adv-x="1286" 
d="M1165 264h-235v357h-811v233h1046v-590z" />
    <glyph glyph-name="registered" unicode="&#xae;" horiz-adv-x="2048" 
d="M1831 778q0 -334 -236 -570.5t-569 -236.5q-334 0 -571.5 236t-237.5 569q0 335 237 572t570 237t570 -237t237 -570zM1688 776q0 274 -194 469t-470 195q-275 0 -470.5 -194.5t-195.5 -467.5q0 -274 195 -468.5t471 -194.5q275 0 469.5 194t194.5 467zM1413 975
q0 -226 -239 -246l225 -405h-164l-221 405h-160v-405h-143v893h397q305 0 305 -242zM1270 973q0 106 -178 106h-238v-221h238q106 0 144 28q34 24 34 87z" />
    <glyph glyph-name="degree" unicode="&#xb0;" horiz-adv-x="768" 
d="M702 1272q0 -127 -90 -217t-217 -90t-217 90t-90 217t90 217t217 90t217 -90t90 -217zM584 1272q0 79 -54.5 133.5t-134.5 54.5q-79 0 -133.5 -54t-54.5 -134q0 -79 54.5 -134t133.5 -55t134 54.5t55 134.5z" />
    <glyph glyph-name="plusminus" unicode="&#xb1;" 
d="M1141 649h-420v-340h-205v340h-422v207h422v340h205v-340h420v-207zM1141 0h-1047v207h1047v-207z" />
    <glyph glyph-name="mu1" unicode="&#xb5;" 
d="M1110 -25h-242v140q-86 -140 -247 -140q-180 0 -246 97v-596h-252v1511h252v-538q0 -273 229 -273q132 0 191 76q65 83 65 280v455h250v-1012z" />
    <glyph glyph-name="mu1" unicode="&#x3bc;" 
d="M1110 -25h-242v140q-86 -140 -247 -140q-180 0 -246 97v-596h-252v1511h252v-538q0 -273 229 -273q132 0 191 76q65 83 65 280v455h250v-1012z" />
    <glyph glyph-name="paragraph" unicode="&#xb6;" 
d="M1149 1368h-127v-1690h-180v1690h-142v-1690h-180v904q-196 0 -317 137q-117 133 -117 340q0 199 134 342t321 143h608v-176z" />
    <glyph glyph-name="middot" unicode="&#xb7;" horiz-adv-x="612" 
d="M453 518q0 -59 -42.5 -102t-103.5 -43q-59 0 -102 42.5t-43 102.5t42.5 104t102.5 44t103 -44t43 -104z" />
    <glyph glyph-name="guillemotright" unicode="&#xbb;" horiz-adv-x="1073" 
d="M1014 655l-371 -493l-133 96l293 397l-293 398l135 98zM594 655l-369 -493l-135 96l295 397l-293 398l135 98z" />
    <glyph glyph-name="multiply" unicode="&#xd7;" 
d="M1047 246l-146 -146l-283 281l-284 -287l-146 146l285 286l-283 285l146 145l282 -284l283 282l146 -145l-281 -283z" />
    <glyph glyph-name="divide" unicode="&#xf7;" 
d="M743 930q0 -52 -36.5 -88.5t-88.5 -36.5q-51 0 -87.5 36.5t-36.5 88.5q0 51 36 88t88 37t88.5 -36.5t36.5 -88.5zM1141 422h-1047v207h1047v-207zM743 129q0 -52 -36.5 -88.5t-88.5 -36.5q-51 0 -87.5 36.5t-36.5 88.5q0 51 36 88t88 37t88.5 -36.5t36.5 -88.5z" />
    <glyph glyph-name="afii10023" unicode="&#x401;" horiz-adv-x="1073" 
d="M895 1776q0 -56 -41 -97t-98 -41t-97.5 40.5t-40.5 97.5t40.5 98t97.5 41q56 0 97.5 -41.5t41.5 -97.5zM485 1776q0 -56 -40.5 -97t-96.5 -41t-97.5 41t-41.5 97q0 57 41 98t98 41t97 -41t40 -98zM975 1331h-602v-393h579v-213h-579v-510h600v-215h-842v1544h844v-213z
" />
    <glyph glyph-name="afii10017" unicode="&#x410;" horiz-adv-x="1468" 
d="M1493 0h-270l-162 365h-653l-164 -365h-269l758 1622zM967 575l-234 529l-231 -529h465z" />
    <glyph glyph-name="afii10018" unicode="&#x411;" horiz-adv-x="1153" 
d="M1098 469q0 -233 -171 -358q-152 -111 -395 -111h-401v1544h852v-213h-610v-393h159q242 0 395 -112q171 -126 171 -357zM850 469q0 128 -92 197q-86 65 -236 65h-149v-522h149q328 0 328 260z" />
    <glyph glyph-name="afii10019" unicode="&#x412;" horiz-adv-x="1149" 
d="M1092 440q0 -440 -560 -440h-401v1544h338q489 0 489 -418q0 -201 -180 -288q148 -38 231 -143.5t83 -254.5zM731 1112q0 229 -289 229h-69v-454h96q121 0 191.5 58.5t70.5 166.5zM852 449q0 251 -356 251h-123v-497h137q342 0 342 246z" />
    <glyph glyph-name="afii10020" unicode="&#x413;" horiz-adv-x="924" 
d="M899 1331h-524v-1331h-240v1544h764v-213z" />
    <glyph glyph-name="afii10021" unicode="&#x414;" horiz-adv-x="1364" 
d="M1339 -303h-219v303h-901v-303h-219v518q203 12 203 451v878h989v-1329h147v-518zM952 215v1114h-518v-719q0 -286 -125 -395h643z" />
    <glyph glyph-name="afii10022" unicode="&#x415;" horiz-adv-x="1073" 
d="M975 1331h-602v-393h579v-213h-579v-510h600v-215h-842v1544h844v-213z" />
    <glyph glyph-name="afii10024" unicode="&#x416;" horiz-adv-x="1894" 
d="M1907 0h-293l-547 756v-756h-238v756l-546 -756h-295l606 811l-565 733h282l518 -688v688h238v-688l516 688h283l-566 -733z" />
    <glyph glyph-name="afii10025" unicode="&#x417;" horiz-adv-x="1192" 
d="M1118 449q0 -215 -166 -354q-154 -130 -368 -130q-350 0 -539 324l154 131q126 -240 372 -240q133 0 213 73.5t80 195.5q0 124 -87.5 197t-235.5 73h-162v207h158q117 0 191 56q81 62 81 169q0 217 -240 217q-92 0 -177 -42q-93 -47 -146 -130l-125 152q185 235 475 235
q209 0 334 -106q129 -111 129 -308q0 -111 -56.5 -198t-152.5 -129q268 -89 268 -393z" />
    <glyph glyph-name="afii10026" unicode="&#x418;" horiz-adv-x="1483" 
d="M1352 0h-240v1036l-981 -1071v1579h242v-1012l979 1047v-1579z" />
    <glyph glyph-name="afii10027" unicode="&#x419;" horiz-adv-x="1483" 
d="M1122 1958q0 -142 -106 -240t-248 -98t-247 96q-109 99 -109 242h211q0 -162 145 -162q143 0 143 162h211zM1352 0h-240v1036l-981 -1071v1579h242v-1012l979 1047v-1579z" />
    <glyph glyph-name="afii10028" unicode="&#x41a;" horiz-adv-x="1303" 
d="M1321 0h-320l-626 762v-762h-242v1544h242v-684l616 684h309l-684 -727z" />
    <glyph glyph-name="afii10029" unicode="&#x41b;" horiz-adv-x="1315" 
d="M1180 0h-242v1329h-494v-840q0 -251 -59 -362q-74 -141 -270 -141q-67 0 -146 18l29 221q39 -18 84 -18q71 0 98 53q31 62 31 236v1048h969v-1544z" />
    <glyph glyph-name="afii10030" unicode="&#x41c;" horiz-adv-x="1690" 
d="M1696 0h-254l-142 874l-456 -913l-457 913l-141 -874h-252l280 1587l570 -1141l569 1141z" />
    <glyph glyph-name="afii10031" unicode="&#x41d;" horiz-adv-x="1444" 
d="M1313 0h-242v717h-698v-717h-242v1544h242v-614h698v614h242v-1544z" />
    <glyph glyph-name="afii10032" unicode="&#x41e;" horiz-adv-x="1749" 
d="M1694 772q0 -332 -240.5 -569.5t-579.5 -237.5q-338 0 -578.5 237t-240.5 570q0 332 240 569.5t579 237.5q338 0 579 -237t241 -570zM1450 772q0 244 -166.5 412t-409.5 168q-241 0 -407 -168t-166 -412t165 -410.5t408 -166.5t409.5 166.5t166.5 410.5z" />
    <glyph glyph-name="afii10033" unicode="&#x41f;" horiz-adv-x="1432" 
d="M1300 0h-239v1329h-688v-1329h-242v1544h1169v-1544z" />
    <glyph glyph-name="afii10034" unicode="&#x420;" horiz-adv-x="1106" 
d="M1061 1092q0 -229 -142.5 -352.5t-400.5 -123.5h-143v-616h-242v1544h338q590 0 590 -452zM819 1085q0 252 -364 252h-80v-514h94q350 0 350 262z" />
    <glyph glyph-name="afii10035" unicode="&#x421;" horiz-adv-x="1358" 
d="M1262 66q-202 -101 -383 -101q-372 0 -598 223t-226 584q0 358 236 584q232 223 590 223q217 0 379 -98v-285q-158 158 -396 158q-240 0 -398 -157q-165 -163 -165 -425q0 -268 164 -428q156 -154 399 -154q223 0 398 162v-286z" />
    <glyph glyph-name="afii10036" unicode="&#x422;" horiz-adv-x="1008" 
d="M995 1331h-370v-1331h-240v1331h-371v213h981v-213z" />
    <glyph glyph-name="afii10037" unicode="&#x423;" horiz-adv-x="1298" 
d="M1335 1544l-760 -1544h-264l246 492l-569 1052h278l418 -801l387 801h264z" />
    <glyph glyph-name="afii10038" unicode="&#x424;" horiz-adv-x="1702" 
d="M1651 811q0 -266 -164 -423t-449 -157h-67v-231h-240v231h-65q-286 0 -450.5 157t-164.5 423q0 265 165 423.5t450 158.5h65v186h240v-186h67q285 0 449 -158t164 -424zM1407 811q0 377 -387 377h-55v-750h55q387 0 387 373zM737 438v750h-53q-389 0 -389 -377
q0 -373 389 -373h53z" />
    <glyph glyph-name="afii10039" unicode="&#x425;" horiz-adv-x="1284" 
d="M1288 0h-276l-367 604l-373 -604h-276l512 813l-442 731h284l295 -524l307 524h283l-451 -731z" />
    <glyph glyph-name="afii10040" unicode="&#x426;" horiz-adv-x="1438" 
d="M1430 -303h-220v303h-1075v1544h242v-1329h667v1329h240v-1329h146v-518z" />
    <glyph glyph-name="afii10041" unicode="&#x427;" horiz-adv-x="1266" 
d="M1133 0h-242v696q-144 -59 -332 -59q-463 0 -463 467v440h240v-407q0 -151 57 -217t185 -66q182 0 313 59v631h242v-1544z" />
    <glyph glyph-name="afii10042" unicode="&#x428;" horiz-adv-x="2011" 
d="M1878 0h-1745v1544h240v-1329h514v1329h237v-1329h514v1329h240v-1544z" />
    <glyph glyph-name="afii10043" unicode="&#x429;" horiz-adv-x="2034" 
d="M2025 -303h-219v303h-1671v1544h242v-1329h512v1329h239v-1329h512v1329h242v-1329h143v-518z" />
    <glyph glyph-name="afii10044" unicode="&#x42a;" horiz-adv-x="1315" 
d="M1270 469q0 -234 -166 -358q-149 -111 -391 -111h-402v1329h-299v215h539v-606h162q241 0 391 -112q166 -125 166 -357zM1030 469q0 262 -328 262h-151v-522h151q171 0 247 57q81 61 81 203z" />
    <glyph glyph-name="afii10045" unicode="&#x42b;" horiz-adv-x="1548" 
d="M1417 0h-241v1544h241v-1544zM1079 469q0 -234 -166 -358q-149 -111 -391 -111h-391v1544h240v-606h151q241 0 391 -112q166 -125 166 -357zM840 469q0 262 -326 262h-143v-522h143q170 0 246 57q80 61 80 203z" />
    <glyph glyph-name="afii10046" unicode="&#x42c;" horiz-adv-x="1137" 
d="M1090 469q0 -234 -167 -358q-149 -111 -391 -111h-401v1544h242v-606h159q241 0 391 -112q167 -125 167 -357zM850 469q0 262 -328 262h-149v-522h149q171 0 247 57q81 61 81 203z" />
    <glyph glyph-name="afii10047" unicode="&#x42d;" horiz-adv-x="1327" 
d="M1272 778q0 -382 -224 -602q-214 -211 -561 -211q-203 0 -391 107v262q169 -154 398 -154q236 0 377 138t155 382h-678v203h670q-29 214 -169 340q-137 123 -339 123q-109 0 -218 -37q-120 -40 -194 -112v258q169 104 426 104q330 0 538 -218q210 -222 210 -583z" />
    <glyph glyph-name="afii10048" unicode="&#x42e;" horiz-adv-x="2144" 
d="M2087 772q0 -333 -226 -570t-550 -237q-306 0 -527 218q-217 216 -239 530h-174v-713h-240v1544h240v-624h184q48 283 258 469q214 190 498 190q323 0 549.5 -236.5t226.5 -570.5zM1845 772q0 246 -152 412t-382 166q-229 0 -380 -166t-151 -412t150.5 -412.5
t380.5 -166.5q229 0 381.5 166.5t152.5 412.5z" />
    <glyph glyph-name="afii10049" unicode="&#x42f;" horiz-adv-x="1169" 
d="M1038 0h-239v633h-76l-424 -633h-281l463 653q-173 28 -271.5 138.5t-98.5 273.5q0 239 163 366q144 113 375 113h389v-1544zM799 817v514h-117q-332 0 -332 -252q0 -262 352 -262h97z" />
    <glyph glyph-name="afii10065" unicode="&#x430;" horiz-adv-x="1192" 
d="M1069 0h-221v147q-129 -182 -334 -182q-199 0 -331 148.5t-132 369.5q0 223 131.5 369.5t333.5 146.5q211 0 332 -180v150h221v-969zM852 483q0 146 -83 232q-79 84 -208 84q-121 0 -200.5 -89.5t-79.5 -226.5q0 -139 79.5 -228t206.5 -89q126 0 205.5 88.5t79.5 228.5z
" />
    <glyph glyph-name="afii10066" unicode="&#x431;" horiz-adv-x="1176" 
d="M1124 485q0 -221 -150 -370.5t-362 -149.5q-278 0 -414 205q-112 169 -112 442q0 461 137 661q124 181 385 181q164 0 225 37q58 36 58 127h211q0 -354 -443 -354q-332 0 -356 -443q125 170 346 170q222 0 353 -152q122 -140 122 -354zM893 479q0 140 -74 226
q-77 90 -209 90q-127 0 -208 -84q-83 -87 -83 -232q0 -134 74 -222q80 -97 217 -97t214 100q69 89 69 219z" />
    <glyph glyph-name="afii10067" unicode="&#x432;" horiz-adv-x="1008" 
d="M958 274q0 -106 -78 -181q-98 -93 -286 -93h-471v969h416q189 0 279 -88q67 -65 67 -160q0 -65 -37 -116.5t-90 -67.5q200 -58 200 -263zM674 686q0 105 -156 105h-174v-216h148q82 0 132 32t50 79zM723 289q0 129 -199 129h-180v-240h209q170 0 170 111z" />
    <glyph glyph-name="afii10068" unicode="&#x433;" horiz-adv-x="731" 
d="M711 770h-363v-770h-225v969h588v-199z" />
    <glyph glyph-name="afii10069" unicode="&#x434;" horiz-adv-x="1075" 
d="M1061 -227h-213v227h-637v-227h-211v426q160 0 160 258v512h786v-770h115v-426zM723 199v571h-346v-328q0 -185 -72 -243h418z" />
    <glyph glyph-name="afii10070" unicode="&#x435;" horiz-adv-x="1124" 
d="M1077 457h-796q0 -125 80 -205t202 -80q216 0 318 164l184 -109q-162 -260 -496 -260q-236 0 -377 143.5t-141 381.5q0 224 144.5 365.5t373.5 141.5q235 0 375 -144q133 -137 133 -351v-47zM842 610q-36 201 -269 201q-214 0 -280 -201h549z" />
    <glyph glyph-name="afii10072" unicode="&#x436;" horiz-adv-x="1505" 
d="M1520 0h-299l-357 455v-455h-223v455l-354 -455h-301l442 508l-405 461h288l330 -414v414h223v-414l330 414h289l-404 -461z" />
    <glyph glyph-name="afii10073" unicode="&#x437;" horiz-adv-x="922" 
d="M866 274q0 -147 -123 -231q-111 -76 -282 -76q-273 0 -416 191l125 145q108 -151 279 -151q182 0 182 139q0 121 -172 121h-135v172h120q174 0 174 116q0 119 -174 119q-163 0 -256 -119l-114 142q147 157 387 157q176 0 273 -73.5t97 -200.5q0 -143 -135 -209
q170 -70 170 -242z" />
    <glyph glyph-name="afii10074" unicode="&#x438;" horiz-adv-x="1143" 
d="M1020 0h-225v569l-672 -604v1004h225v-570l672 600v-999z" />
    <glyph glyph-name="afii10075" unicode="&#x439;" horiz-adv-x="1143" 
d="M870 1319q0 -123 -90 -199q-80 -67 -184 -67t-185 66q-92 76 -92 200h177q0 -121 100 -121q98 0 98 121h176zM1020 0h-225v569l-672 -604v1004h225v-570l672 600v-999z" />
    <glyph glyph-name="afii10076" unicode="&#x43a;" horiz-adv-x="1014" 
d="M1034 0h-293l-385 428v-428h-225v969h225v-394l351 394h290l-442 -461z" />
    <glyph glyph-name="afii10077" unicode="&#x43b;" horiz-adv-x="1057" 
d="M926 0h-226v770h-319v-465q0 -330 -231 -330q-81 0 -170 27l20 193q39 -21 78 -21q44 0 63 29q23 36 23 131v635h762v-969z" />
    <glyph glyph-name="afii10078" unicode="&#x43c;" horiz-adv-x="1188" 
d="M1188 0h-227l-99 436l-268 -473l-268 473l-99 -436h-227l238 1006l356 -652l356 652z" />
    <glyph glyph-name="afii10079" unicode="&#x43d;" horiz-adv-x="1137" 
d="M1014 0h-226v410h-440v-410h-225v969h225v-373h440v373h226v-969z" />
    <glyph glyph-name="afii10080" unicode="&#x43e;" horiz-adv-x="1163" 
d="M1114 483q0 -214 -152 -364q-155 -152 -380 -152q-227 0 -380 150.5t-153 365.5q0 214 153 365t380 151q225 0 380 -152q152 -150 152 -364zM885 483q0 128 -88 218t-215 90t-214 -90t-87 -218t87 -217.5t214 -89.5t215 89t88 218z" />
    <glyph glyph-name="afii10081" unicode="&#x43f;" horiz-adv-x="1118" 
d="M995 0h-225v770h-422v-770h-225v969h872v-969z" />
    <glyph glyph-name="afii10082" unicode="&#x440;" horiz-adv-x="1192" 
d="M1141 485q0 -224 -130.5 -372t-332.5 -148q-119 0 -219 68q-63 43 -115 114q0 -7 2 -64.5t2 -72.5v-563h-225v1522h221v-152q128 182 334 182q199 0 331 -147t132 -367zM909 487q0 136 -79 224t-205 88q-122 0 -203.5 -89.5t-81.5 -224.5q0 -139 80.5 -229t208.5 -90
q124 0 202 90.5t78 230.5z" />
    <glyph glyph-name="afii10083" unicode="&#x441;" horiz-adv-x="918" 
d="M836 29q-115 -62 -261 -62q-223 0 -372.5 147.5t-149.5 368.5q0 217 148.5 366.5t367.5 149.5q167 0 267 -61v-225q-96 90 -254 90q-124 0 -213.5 -95t-89.5 -227t85 -222.5t211 -90.5q147 0 261 86v-225z" />
    <glyph glyph-name="afii10084" unicode="&#x442;" horiz-adv-x="768" 
d="M756 770h-258v-770h-228v770h-258v199h744v-199z" />
    <glyph glyph-name="afii10085" unicode="&#x443;" horiz-adv-x="1067" 
d="M1092 969l-697 -1522h-241l284 625l-438 897h252l303 -652l291 652h246z" />
    <glyph glyph-name="afii10086" unicode="&#x444;" horiz-adv-x="1597" 
d="M1544 496q0 -223 -114 -361q-119 -143 -322 -143q-127 0 -197 67v-612h-225v612q-70 -67 -197 -67q-203 0 -322 143q-114 138 -114 361q0 224 113 361q117 142 315 142q96 0 205 -73v692h225v-692q110 73 205 73q198 0 315 -142q113 -137 113 -361zM1313 494
q0 136 -59 222.5t-164 86.5q-81 0 -183 -68v-481q69 -66 189 -66q105 0 163 87q54 81 54 219zM690 254v481q-102 68 -182 68q-105 0 -164 -86.5t-59 -222.5q0 -138 54 -219q58 -87 163 -87q119 0 188 66z" />
    <glyph glyph-name="afii10087" unicode="&#x445;" horiz-adv-x="1118" 
d="M1137 0h-277l-303 367l-293 -367h-282l446 526l-358 443h272l215 -285l231 285h283l-369 -443z" />
    <glyph glyph-name="afii10088" unicode="&#x446;" horiz-adv-x="1106" 
d="M1090 -227h-211v227h-754v969h225v-770h400v770h225v-770h115v-426z" />
    <glyph glyph-name="afii10089" unicode="&#x447;" horiz-adv-x="1014" 
d="M889 0h-225v399q-117 -53 -238 -53q-328 0 -328 297v326h221v-289q0 -148 140 -148q122 0 205 54v383h225v-969z" />
    <glyph glyph-name="afii10090" unicode="&#x448;" horiz-adv-x="1616" 
d="M1493 0h-1370v969h223v-770h350v770h224v-770h350v770h223v-969z" />
    <glyph glyph-name="afii10091" unicode="&#x449;" horiz-adv-x="1622" 
d="M1610 -227h-213v227h-1272v969h223v-770h350v770h224v-770h350v770h223v-770h115v-426z" />
    <glyph glyph-name="afii10092" unicode="&#x44a;" horiz-adv-x="1051" 
d="M1006 305q0 -157 -117 -236q-102 -69 -277 -69h-376v776h-218v193h441v-357h153q174 0 277 -71q117 -80 117 -236zM778 307q0 125 -178 125h-141v-250h141q178 0 178 125z" />
    <glyph glyph-name="afii10093" unicode="&#x44b;" horiz-adv-x="1315" 
d="M1192 0h-225v969h225v-969zM879 305q0 -157 -117 -236q-102 -69 -277 -69h-362v969h223v-357h139q174 0 277 -71q117 -80 117 -236zM649 307q0 125 -176 125h-127v-250h125q178 0 178 125z" />
    <glyph glyph-name="afii10094" unicode="&#x44c;" horiz-adv-x="940" 
d="M895 305q0 -157 -117 -236q-102 -69 -276 -69h-379v969h225v-357h154q173 0 276 -71q117 -80 117 -236zM666 307q0 125 -177 125h-141v-250h139q179 0 179 125z" />
    <glyph glyph-name="afii10095" unicode="&#x44d;" horiz-adv-x="934" 
d="M881 485q0 -221 -129 -367q-135 -153 -357 -153q-208 0 -313 72v215q116 -98 305 -98q112 0 189 72q73 68 90 177h-385v177h378q-22 104 -92 168q-75 69 -180 69q-202 0 -305 -94v215q117 61 313 61q212 0 349 -145.5t137 -368.5z" />
    <glyph glyph-name="afii10096" unicode="&#x44e;" horiz-adv-x="1534" 
d="M1485 483q0 -221 -142 -368q-144 -150 -370 -150q-207 0 -346 125q-133 119 -158 313h-121v-403h-225v969h225v-383h121q31 183 166 296q139 117 338 117q230 0 373 -148q139 -145 139 -368zM1257 483q0 141 -74 227q-77 89 -210 89q-132 0 -208.5 -87t-76.5 -229
t75 -227q77 -88 210 -88t210 87q74 85 74 228z" />
    <glyph glyph-name="afii10097" unicode="&#x44f;" horiz-adv-x="977" 
d="M854 0h-227v367h-103l-223 -367h-260l252 379q-221 56 -221 285q0 159 122 238q104 67 283 67h377v-969zM627 524v256h-144q-182 0 -182 -127q0 -71 41.5 -100t138.5 -29h146z" />
    <glyph glyph-name="afii10071" unicode="&#x451;" horiz-adv-x="1124" 
d="M920 1245q0 -55 -41.5 -96t-98.5 -41t-97 40t-40 97t40 98t97 41q56 0 98 -41.5t42 -97.5zM510 1245q0 -56 -40.5 -96.5t-96.5 -40.5t-98 40.5t-42 96.5q0 57 41.5 98t98.5 41t97 -41t40 -98zM1077 457h-796q0 -125 80 -205t202 -80q216 0 318 164l184 -109
q-162 -260 -496 -260q-236 0 -377 143.5t-141 381.5q0 224 144.5 365.5t373.5 141.5q235 0 375 -144q133 -137 133 -351v-47zM842 610q-36 201 -269 201q-214 0 -280 -201h549z" />
    <glyph glyph-name="endash" unicode="&#x2013;" horiz-adv-x="1024" 
d="M1036 563h-1048v189h1048v-189z" />
    <glyph glyph-name="emdash" unicode="&#x2014;" horiz-adv-x="2048" 
d="M2060 563h-2072v189h2072v-189z" />
    <glyph glyph-name="quoteleft" unicode="&#x2018;" horiz-adv-x="612" 
d="M543 1534l-234 -590l-205 49l297 578z" />
    <glyph glyph-name="quoteright" unicode="&#x2019;" horiz-adv-x="612" 
d="M508 1522l-295 -578l-143 37l233 590z" />
    <glyph glyph-name="quotesinglbase" unicode="&#x201a;" horiz-adv-x="612" 
d="M535 229l-297 -577l-142 37l234 594z" />
    <glyph glyph-name="quotedblleft" unicode="&#x201c;" horiz-adv-x="995" 
d="M926 1534l-236 -590l-205 49l297 578zM543 1534l-234 -590l-205 49l297 578z" />
    <glyph glyph-name="quotedblright" unicode="&#x201d;" horiz-adv-x="995" 
d="M891 1522l-297 -578l-143 37l235 590zM508 1522l-295 -578l-143 37l233 590z" />
    <glyph glyph-name="quotedblbase" unicode="&#x201e;" horiz-adv-x="995" 
d="M909 229l-295 -577l-143 37l234 590zM528 229l-297 -577l-141 37l234 590z" />
    <glyph glyph-name="dagger" unicode="&#x2020;" 
d="M1096 885h-369v-1215h-219v1215h-369v202h369v531h219v-531h369v-202z" />
    <glyph glyph-name="bullet" unicode="&#x2022;" 
d="M879 784q0 -106 -77 -184t-186 -78q-105 0 -183.5 77.5t-78.5 184.5q0 108 77.5 187.5t184.5 79.5t185 -79.5t78 -187.5z" />
    <glyph glyph-name="ellipsis" unicode="&#x2026;" horiz-adv-x="2048" 
d="M1853 113q0 -60 -43 -104t-104 -44q-60 0 -103.5 44t-43.5 104t43.5 102.5t103.5 42.5t103.5 -42t43.5 -103zM1169 113q0 -61 -42 -104.5t-103 -43.5q-60 0 -103.5 44t-43.5 104t43 102.5t104 42.5q60 0 102.5 -42t42.5 -103zM487 113q0 -61 -42 -104.5t-103 -43.5
q-60 0 -103.5 44t-43.5 104t43 102.5t104 42.5q60 0 102.5 -42t42.5 -103z" />
    <glyph glyph-name="perthousand" unicode="&#x2030;" horiz-adv-x="2603" 
d="M2558 338q0 -160 -102.5 -265.5t-260.5 -105.5t-265 104.5t-107 258.5q0 160 105 266t265 106q154 0 259.5 -105t105.5 -259zM1696 338q0 -160 -102.5 -265.5t-260.5 -105.5t-265 104.5t-107 258.5q0 160 105 266t265 106q154 0 259.5 -105t105.5 -259zM1376 1530
l-870 -1598l-144 76l877 1591zM780 1227q0 -160 -102 -264.5t-260 -104.5t-265.5 104t-107.5 257q0 158 105.5 262t265.5 104q154 0 259 -103t105 -255zM2355 328q0 86 -47 145t-113 59q-71 0 -119 -60t-48 -144t47.5 -138.5t117.5 -54.5q66 0 114 56.5t48 136.5zM1493 328
q0 86 -47 145t-113 59q-71 0 -119.5 -60t-48.5 -144t48 -138.5t118 -54.5q66 0 114 56.5t48 136.5zM578 1217q0 84 -47 142t-113 58q-72 0 -120 -56t-48 -140q0 -81 48.5 -138t117.5 -57q66 0 114 56t48 135z" />
    <glyph glyph-name="guilsinglleft" unicode="&#x2039;" horiz-adv-x="768" 
d="M625 258l-138 -96l-370 493l368 496l138 -98l-295 -398z" />
    <glyph glyph-name="guilsinglright" unicode="&#x203a;" horiz-adv-x="768" 
d="M651 655l-370 -493l-138 96l297 397l-295 398l138 98z" />
    <glyph glyph-name="afii61352" unicode="&#x2116;" horiz-adv-x="2415" 
d="M2302 666q0 -154 -106.5 -262.5t-256.5 -108.5q-152 0 -257 108t-105 263q0 154 105.5 263t256.5 109q150 0 256.5 -109t106.5 -263zM2302 0h-725v182h725v-182zM1423 -37l-1061 1061v-1024h-231v1581l1063 -1059v1022h229v-1581zM2120 666q0 87 -53 144.5t-130 57.5
t-128.5 -57.5t-51.5 -144.5q0 -86 52.5 -142.5t129.5 -56.5t129 56.5t52 142.5z" />
    <glyph glyph-name="trademark" unicode="&#x2122;" horiz-adv-x="2048" 
d="M1948 690h-148v727l-299 -727h-90l-291 727v-727h-151v854h241l248 -579l250 579h240v-854zM815 1407h-291v-717h-149v717h-289v137h729v-137z" />
    <glyph glyph-name="minus" unicode="&#xad;" 
d="M1141 424h-1047v205h1047v-205z" />
    <glyph glyph-name="minus" unicode="&#x2212;" 
d="M1141 424h-1047v205h1047v-205z" />
    <glyph glyph-name="periodcentered" unicode="&#x2219;" horiz-adv-x="612" 
d="M453 518q0 -59 -42.5 -102t-103.5 -43q-59 0 -102 42.5t-43 102.5t42.5 104t102.5 44t103 -44t43 -104z" />
    <glyph glyph-name="glyph197" horiz-adv-x="1024" 
 />
    </font>
</defs>
</svg>
