<?xml version="1.0" standalone="no"?>
<!DOCTYPE svg PUBLIC "-//W3C//DTD SVG 1.1//EN" "http://www.w3.org/Graphics/SVG/1.1/DTD/svg11.dtd" >
<svg>
<metadata>
Created by FontForge 20120731 at Wed Jun 11 13:15:22 2014
 By World Wide Web Server
a_FuturicaLighted *Arsenal Company (c)1997* FAX: (095)924-3775; e-Mail: arsenal@itco.msk.su; Phone: (095)924-5811 (Design and Featuring W.Chufarofsky &#38; M.Slutsker)
</metadata>
<defs>
<font id="AFuturicaLtSemiBold" horiz-adv-x="1286" >
  <font-face 
    font-family="a_FuturicaLt"
    font-weight="600"
    font-stretch="normal"
    units-per-em="2048"
    panose-1="2 11 6 2 2 2 4 2 3 4"
    ascent="1638"
    descent="-410"
    x-height="1001"
    cap-height="1544"
    bbox="-109 -616 2470 2070"
    underline-thickness="162"
    underline-position="-252"
    unicode-range="U+0020-2219"
  />
<missing-glyph horiz-adv-x="1024" 
d="M128 0v2070h768v-2070h-768zM256 128h512v1814h-512v-1814z" />
    <glyph glyph-name=".notdef" horiz-adv-x="1024" 
d="M128 0v2070h768v-2070h-768zM256 128h512v1814h-512v-1814z" />
    <glyph glyph-name=".null" horiz-adv-x="0" 
 />
    <glyph glyph-name="nonmarkingreturn" horiz-adv-x="641" 
 />
    <glyph glyph-name="space" unicode=" " horiz-adv-x="641" 
 />
    <glyph glyph-name="exclam" unicode="!" horiz-adv-x="719" 
d="M498 432h-277v1112h277v-1112zM535 137q0 -71 -52.5 -122.5t-124.5 -51.5q-71 0 -122.5 51.5t-51.5 122.5q0 72 51.5 123t122.5 51q72 0 124.5 -51t52.5 -123z" />
    <glyph glyph-name="quotedbl" unicode="&#x22;" horiz-adv-x="956" 
d="M813 1544l-47 -645h-174l-49 645h270zM414 1544l-47 -645h-177l-47 645h271z" />
    <glyph glyph-name="numbersign" unicode="#" 
d="M1198 877h-219l-51 -285h188v-197h-225l-76 -395h-182l74 395h-238l-74 -395h-184l74 395h-197v197h234l53 285h-205v196h242l73 406h185l-76 -406h237l76 406h185l-76 -406h182v-196zM795 877h-238l-51 -285h235z" />
    <glyph glyph-name="dollar" unicode="$" 
d="M1161 455q0 -186 -110.5 -308.5t-307.5 -156.5v-228h-143v218q-144 0 -279 84.5t-210 224.5l184 172q46 -100 133 -165q95 -71 205 -71q103 0 173.5 59.5t70.5 151.5q0 95 -62.5 152.5t-226.5 116.5q-206 74 -298.5 174.5t-92.5 255.5q0 172 112 287q109 114 291 139v211
h143v-209q231 -21 367 -183l-154 -186q-90 127 -258 127q-89 0 -152 -50t-63 -122q0 -73 62 -119q59 -44 229 -102q206 -70 295 -176q92 -110 92 -297z" />
    <glyph glyph-name="percent" unicode="%" horiz-adv-x="1675" 
d="M752 1227q0 -160 -98.5 -264.5t-250.5 -104.5t-255 103.5t-103 257.5q0 158 101.5 263t254.5 105q148 0 249.5 -104t101.5 -256zM1354 1587l-852 -1628h-174l858 1628h168zM1630 330q0 -160 -98 -265.5t-250 -105.5t-255 104.5t-103 258.5q0 160 101.5 266t254.5 106
q148 0 249 -105t101 -259zM557 1217q0 84 -45.5 143t-108.5 59q-69 0 -115 -56.5t-46 -141.5q0 -81 46.5 -138t112.5 -57q63 0 109.5 56t46.5 135zM1436 319q0 86 -45.5 145.5t-108.5 59.5q-68 0 -115 -60.5t-47 -144.5q0 -83 46.5 -137.5t113.5 -54.5q63 0 109.5 56.5
t46.5 135.5z" />
    <glyph glyph-name="ampersand" unicode="&#x26;" horiz-adv-x="1573" 
d="M1585 0h-360q-36 33 -150 172q-237 -209 -483 -209q-229 0 -369 137q-129 126 -129 310q0 142 75 239q79 103 294 228q-160 171 -160 323q0 171 117 277q114 104 293 104q181 0 298 -95q122 -99 122 -263q0 -215 -283 -385q22 -30 129 -156q110 -130 133 -152
q84 75 191 215l172 -170q-136 -165 -201 -223q129 -148 311 -352zM891 1223q0 69 -47.5 109t-118.5 40q-60 0 -102 -39q-45 -41 -45 -106q0 -73 131 -230q100 64 138 108q44 52 44 118zM909 362q-47 42 -299 345q-115 -74 -158 -117q-69 -70 -69 -152q0 -89 74 -154
q71 -63 164 -63q66 0 145 37q86 40 143 104z" />
    <glyph glyph-name="quotesingle" unicode="'" horiz-adv-x="512" 
d="M391 1544l-47 -645h-176l-47 645h270z" />
    <glyph glyph-name="parenleft" unicode="(" horiz-adv-x="664" 
d="M555 -362l-182 -99q-107 177 -176 428q-80 295 -80 613q0 316 80 611q69 250 176 427l182 -98q-84 -144 -140 -383q-63 -270 -63 -557q0 -288 63 -558q56 -240 140 -384z" />
    <glyph glyph-name="parenright" unicode=")" horiz-adv-x="664" 
d="M549 580q0 -319 -81 -613q-69 -253 -179 -428l-183 99q85 143 141 384q62 269 62 558t-62 557q-56 240 -141 383l183 98q110 -175 179 -427q81 -293 81 -611z" />
    <glyph glyph-name="asterisk" unicode="*" horiz-adv-x="1024" 
d="M844 1110l-78 -139l-180 108l6 -209h-158l4 209l-178 -108l-80 139l185 98l-185 99l80 139l178 -109l-4 207h158l-6 -207l180 109l78 -139l-182 -99z" />
    <glyph glyph-name="plus" unicode="+" 
d="M1141 412h-379v-381h-238v381h-381v235h381v377h238v-377h379v-235z" />
    <glyph glyph-name="comma" unicode="," horiz-adv-x="643" 
d="M512 276l-319 -608l-173 27l201 616z" />
    <glyph glyph-name="hyphen" unicode="-" horiz-adv-x="768" 
d="M641 545h-512v223h512v-223z" />
    <glyph glyph-name="hyphen" unicode="&#x2010;" horiz-adv-x="768" 
d="M641 545h-512v223h512v-223z" />
    <glyph glyph-name="period" unicode="." horiz-adv-x="643" 
d="M498 137q0 -71 -52 -122.5t-124 -51.5q-71 0 -123 51.5t-52 122.5q0 72 52 123t123 51q72 0 124 -51t52 -123z" />
    <glyph glyph-name="slash" unicode="/" horiz-adv-x="1034" 
d="M1034 1706l-821 -1933l-213 34l821 1936z" />
    <glyph glyph-name="zero" unicode="0" 
d="M1235 772q0 -358 -165.5 -587.5t-428.5 -229.5q-262 0 -427 229.5t-165 587.5t166 587.5t428 229.5t427 -229.5t165 -587.5zM950 772q0 249 -84 404q-85 159 -225 159q-137 0 -222 -157.5t-85 -405.5t85 -404q85 -159 224 -159q138 0 223 159q84 156 84 404z" />
    <glyph glyph-name="one" unicode="1" 
d="M1075 0h-817v248h274v1044h-233l55 252h463v-1296h258v-248z" />
    <glyph glyph-name="two" unicode="2" 
d="M1190 0h-1108l643 754q166 195 166 331q0 108 -67 181t-167 73q-108 0 -176 -73q-71 -75 -71 -197h-306q12 233 159.5 376.5t379.5 143.5q231 0 384 -143t153 -359q0 -149 -107 -307q-37 -54 -202 -252q-183 -219 -248 -276h567v-252z" />
    <glyph glyph-name="three" unicode="3" 
d="M1184 436q0 -204 -154.5 -342.5t-382.5 -138.5q-258 0 -410 141q-145 133 -145 340h287q12 -233 264 -233q109 0 181.5 74.5t72.5 183.5q0 119 -66 188.5t-190 69.5h-74v203h47q242 0 242 208q0 99 -60 159.5t-159 60.5q-90 0 -148 -56.5t-63 -144.5h-274q18 210 150 325
t355 115q209 0 339 -119t130 -311q0 -229 -178 -334q108 -41 171 -143q65 -105 65 -246z" />
    <glyph glyph-name="four" unicode="4" 
d="M1231 268h-180v-268h-273v268h-751v148l774 1163h250v-1077h180v-234zM778 502v626l-405 -626h405z" />
    <glyph glyph-name="five" unicode="5" horiz-adv-x="1288" 
d="M1178 502q0 -239 -169.5 -393t-428.5 -154q-306 0 -455 137l57 275q60 -69 165.5 -114.5t215.5 -45.5q134 0 229 89.5t95 219.5q0 141 -100.5 229.5t-256.5 88.5q-177 0 -299 -103l-14 6l111 807h755v-252h-528l-35 -262q79 19 156 19q220 0 361 -153.5t141 -393.5z" />
    <glyph glyph-name="six" unicode="6" 
d="M1221 498q0 -235 -164.5 -389t-413.5 -154t-410 142q-167 147 -167 386q0 141 69 284.5t252 381.5l318 414l284 -52l-334 -417q-5 -7 -94 -127q88 41 193 41q196 0 331.5 -146.5t135.5 -363.5zM934 473q0 135 -81 218t-210 83q-115 0 -203 -83q-92 -86 -92 -210
q0 -128 88 -210q83 -78 203 -78q123 0 209 81.5t86 198.5z" />
    <glyph glyph-name="seven" unicode="7" 
d="M1286 1544l-811 -1581l-301 43l666 1286h-736v252h1182z" />
    <glyph glyph-name="eight" unicode="8" 
d="M1176 414q0 -206 -154 -335q-150 -124 -379 -124q-225 0 -377 127q-155 131 -155 332q0 140 75 246q73 103 197 147q-112 56 -170 162q-51 92 -51 196q0 188 135.5 306t345.5 118q207 0 344 -119.5t137 -304.5q0 -248 -223 -358q125 -45 202 -159q73 -109 73 -234z
M862 1153q0 95 -63 157t-156 62t-156 -63t-63 -156q0 -98 62 -161.5t157 -63.5q92 0 155.5 65t63.5 160zM889 440q0 101 -72 174.5t-172 73.5q-105 0 -176.5 -72t-71.5 -178q0 -105 69.5 -172t178.5 -67q105 0 174.5 68.5t69.5 172.5z" />
    <glyph glyph-name="nine" unicode="9" 
d="M1235 1061q0 -143 -69 -286.5t-253 -379.5l-335 -432l-283 51l358 451q54 67 84 113q-85 -41 -190 -41q-198 0 -332.5 145.5t-134.5 364.5q0 235 164 388.5t413 153.5q247 0 410 -142q168 -147 168 -386zM950 1063q0 128 -87 211q-83 78 -201 78q-123 0 -209 -82.5
t-86 -200.5q0 -134 80.5 -217.5t209.5 -83.5q114 0 201 83q92 87 92 212z" />
    <glyph glyph-name="colon" unicode=":" horiz-adv-x="643" 
d="M496 879q0 -72 -51.5 -123t-122.5 -51q-72 0 -123.5 51t-51.5 123q0 71 51.5 122.5t123.5 51.5q71 0 122.5 -51.5t51.5 -122.5zM496 137q0 -71 -51.5 -122.5t-122.5 -51.5q-72 0 -123.5 51.5t-51.5 122.5q0 72 51.5 123t123.5 51q71 0 122.5 -51t51.5 -123z" />
    <glyph glyph-name="semicolon" unicode=";" horiz-adv-x="643" 
d="M522 879q0 -72 -51 -123t-123 -51t-123 51t-51 123q0 71 51 122.5t123 51.5t123 -51.5t51 -122.5zM512 276l-319 -608l-173 27l201 616z" />
    <glyph glyph-name="less" unicode="&#x3c;" 
d="M1155 33l-1026 399v189l1026 401v-248l-684 -248l684 -250v-243z" />
    <glyph glyph-name="equal" unicode="=" 
d="M1149 616h-1014v238h1014v-238zM1149 199h-1014v235h1014v-235z" />
    <glyph glyph-name="greater" unicode="&#x3e;" 
d="M1155 432l-1026 -399v243l684 250l-684 248v248l1026 -401v-189z" />
    <glyph glyph-name="question" unicode="?" horiz-adv-x="1024" 
d="M977 1169q0 -183 -96 -304q-90 -113 -238 -142v-244h-287v457h86q240 0 240 217q0 90 -57 140q-50 44 -119 44q-70 0 -113 -44q-45 -48 -45 -134v-16h-303v22q0 170 112 288q127 132 349 132q220 0 350 -124q121 -115 121 -292zM688 143q0 -76 -52.5 -130t-127.5 -54
q-77 0 -130.5 53.5t-53.5 128.5q0 76 53.5 130.5t128.5 54.5q77 0 129.5 -54t52.5 -129z" />
    <glyph glyph-name="at" unicode="@" horiz-adv-x="1679" 
d="M1630 930q0 -240 -147 -427q-143 -181 -312 -181q-105 0 -137 124q-40 -47 -113 -82q-85 -40 -173 -40q-141 0 -242 103q-109 112 -109 288q0 186 121 328q131 153 326 153q75 0 150 -34q84 -39 114 -99l29 92h174l-123 -573q-10 -47 -10 -60q12 -28 36 -28q80 0 156 132
q80 140 80 314q0 192 -163 330q-167 141 -408 141q-266 0 -455 -185q-191 -188 -191 -456q0 -307 196 -479q174 -154 441 -154q140 0 268 29q116 27 169 65l166 -129q-59 -51 -218 -92q-175 -45 -360 -45q-390 0 -619 224q-225 221 -225 591q0 321 241 560q246 243 587 243
q322 0 540 -196q211 -190 211 -457zM1044 815q0 84 -54 139.5t-140 55.5q-104 0 -178 -89q-70 -85 -70 -192q0 -101 60 -159q54 -52 131 -52q122 0 191 94q60 82 60 203z" />
    <glyph glyph-name="A" unicode="A" horiz-adv-x="1511" 
d="M1524 0h-303l-134 348h-663l-133 -348h-303l614 1544h307zM995 588l-239 622l-240 -622h479z" />
    <glyph glyph-name="B" unicode="B" horiz-adv-x="1217" 
d="M1155 440q0 -212 -146 -326t-413 -114h-465v1544h408q241 0 369 -109q124 -107 124 -305q0 -95 -54 -176q-51 -77 -136 -120q140 -35 228 -149q85 -110 85 -245zM756 1104q0 207 -271 207h-65v-410h84q116 0 184 52.5t68 150.5zM866 455q0 227 -315 227h-131v-449h131
q315 0 315 222z" />
    <glyph glyph-name="C" unicode="C" horiz-adv-x="1356" 
d="M1257 55q-195 -92 -376 -92q-365 0 -594.5 226.5t-229.5 582.5q0 350 243 582q237 227 583 227q207 0 372 -92v-344q-150 162 -383 162q-221 0 -367 -146q-151 -151 -151 -389q0 -243 150 -391q144 -143 368 -143q221 0 385 161v-344z" />
    <glyph glyph-name="D" unicode="D" horiz-adv-x="1448" 
d="M1393 772q0 -354 -218 -560q-225 -212 -632 -212h-412v1544h428q395 0 618 -215q216 -207 216 -557zM1096 772q0 249 -154 384.5t-432 135.5h-90v-1040h82q284 0 439 134.5t155 385.5z" />
    <glyph glyph-name="E" unicode="E" horiz-adv-x="1090" 
d="M985 1292h-565v-352h543v-252h-543v-436h563v-252h-852v1544h854v-252z" />
    <glyph glyph-name="F" unicode="F" horiz-adv-x="995" 
d="M944 1292h-524v-352h471v-254h-471v-686h-289v1544h813v-252z" />
    <glyph glyph-name="G" unicode="G" horiz-adv-x="1673" 
d="M1618 754q0 -369 -213 -584q-206 -207 -545 -207q-348 0 -574 226q-229 227 -229 583q0 344 235 576.5t582 232.5q211 0 388 -95.5t274 -260.5l-248 -144q-154 250 -420 250q-215 0 -364.5 -162t-149.5 -397q0 -245 150 -407q146 -158 360 -158q170 0 294 106
q128 108 128 265h-377v235h709v-59z" />
    <glyph glyph-name="H" unicode="H" horiz-adv-x="1503" 
d="M1372 0h-289v690h-663v-690h-289v1544h289v-608h663v608h289v-1544z" />
    <glyph glyph-name="I" unicode="I" horiz-adv-x="561" 
d="M426 0h-291v1544h291v-1544z" />
    <glyph glyph-name="J" unicode="J" horiz-adv-x="692" 
d="M557 455q0 -268 -95 -380t-312 -112q-159 0 -259 76l109 227q67 -47 127 -47q80 0 110.5 54.5t30.5 197.5v1073h289v-1089z" />
    <glyph glyph-name="K" unicode="K" horiz-adv-x="1370" 
d="M1395 0h-379l-596 754v-754h-289v1544h289v-684l579 684h365l-657 -729z" />
    <glyph glyph-name="L" unicode="L" horiz-adv-x="915" 
d="M895 0h-760v1544h289v-1292h471v-252z" />
    <glyph glyph-name="M" unicode="M" horiz-adv-x="1806" 
d="M1806 0h-286l-150 1034l-344 -1034h-246l-344 1034l-149 -1034h-287l246 1544h311l346 -1163l346 1163h312z" />
    <glyph glyph-name="N" unicode="N" horiz-adv-x="1614" 
d="M1483 0h-273l-807 1087v-1087h-272v1544h272l807 -1087v1087h273v-1544z" />
    <glyph glyph-name="O" unicode="O" horiz-adv-x="1769" 
d="M1714 772q0 -338 -241 -573.5t-588 -235.5t-588.5 235.5t-241.5 573.5t241.5 573.5t588.5 235.5t588 -235.5t241 -573.5zM1419 772q0 225 -154 379t-380 154q-224 0 -378.5 -154.5t-154.5 -378.5t154.5 -378t378.5 -154q226 0 380 154t154 378z" />
    <glyph glyph-name="P" unicode="P" horiz-adv-x="1174" 
d="M1128 1075q0 -239 -138.5 -364t-399.5 -125h-170v-586h-289v1544h420q577 0 577 -469zM838 1067q0 236 -326 236h-92v-476h102q316 0 316 240z" />
    <glyph glyph-name="Q" unicode="Q" horiz-adv-x="1769" 
d="M1714 776q0 -332 -233 -565l180 -205l-272 -63l-107 120q-182 -96 -397 -96q-347 0 -588.5 235.5t-241.5 573.5t241.5 573.5t588.5 235.5t588 -235.5t241 -573.5zM1419 776q0 225 -154 379t-380 154q-224 0 -378.5 -154.5t-154.5 -378.5t154.5 -378t378.5 -154
q104 0 205 39l-242 274l268 70l174 -199q129 149 129 348z" />
    <glyph glyph-name="R" unicode="R" horiz-adv-x="1221" 
d="M1241 0h-358l-402 604l-61 6v-610h-289v1544h434q258 0 401.5 -119.5t143.5 -339.5q0 -159 -89 -276q-97 -127 -265 -156zM819 1073q0 238 -332 238h-67v-480h76q323 0 323 242z" />
    <glyph glyph-name="S" unicode="S" horiz-adv-x="1176" 
d="M1110 477q0 -236 -140 -374q-143 -140 -395 -140q-324 0 -481 209l174 211q95 -166 305 -166q118 0 182 67q60 61 60 162q0 167 -293 259q-207 65 -301 164.5t-94 258.5q0 199 140 326t356 127q223 0 411 -166l-155 -211q-125 125 -252 125q-90 0 -145.5 -50t-55.5 -124
q0 -71 60 -116.5t235 -104.5q389 -130 389 -457z" />
    <glyph glyph-name="T" unicode="T" horiz-adv-x="1030" 
d="M1018 1292h-359v-1292h-288v1292h-359v252h1006v-252z" />
    <glyph glyph-name="U" unicode="U" horiz-adv-x="1479" 
d="M1356 578q0 -289 -165 -452t-452 -163q-288 0 -452 163t-164 452v966h289v-907q0 -416 327 -416q328 0 328 416v907h289v-966z" />
    <glyph glyph-name="V" unicode="V" horiz-adv-x="1389" 
d="M1407 1544l-582 -1544h-264l-579 1544h315l397 -1194l398 1194h315z" />
    <glyph glyph-name="W" unicode="W" horiz-adv-x="2097" 
d="M2103 1544l-473 -1544h-268l-313 1108l-314 -1108h-268l-473 1544h305l307 -1071l299 1071h287l299 -1071l307 1071h305z" />
    <glyph glyph-name="X" unicode="X" horiz-adv-x="1389" 
d="M1401 0h-340l-367 575l-366 -575h-340l540 815l-458 729h348l276 -487l277 487h348l-459 -729z" />
    <glyph glyph-name="Y" unicode="Y" horiz-adv-x="1311" 
d="M1335 1544l-534 -839v-705h-291v705l-535 839h342l338 -549l338 549h342z" />
    <glyph glyph-name="Z" unicode="Z" horiz-adv-x="1239" 
d="M1227 1544l-744 -1292h717v-252h-1200l750 1292h-654v252h1131z" />
    <glyph glyph-name="bracketleft" unicode="[" horiz-adv-x="662" 
d="M553 -471h-442v2142h442v-192h-211v-1758h211v-192z" />
    <glyph glyph-name="backslash" unicode="\" horiz-adv-x="1034" 
d="M1034 -193l-213 -34l-821 1933l213 37z" />
    <glyph glyph-name="bracketright" unicode="]" horiz-adv-x="662" 
d="M553 -471h-442v192h208v1758h-208v192h442v-2142z" />
    <glyph glyph-name="asciicircum" unicode="^" horiz-adv-x="1024" 
d="M930 1073h-252l-166 273l-166 -273h-252l299 508h238z" />
    <glyph glyph-name="underscore" unicode="_" horiz-adv-x="1024" 
d="M1036 -385h-1048v156h1048v-156z" />
    <glyph glyph-name="grave" unicode="`" horiz-adv-x="776" 
d="M623 1237l-125 -74l-365 332l227 102z" />
    <glyph glyph-name="a" unicode="a" horiz-adv-x="1260" 
d="M1137 0h-265v143q-128 -180 -337 -180q-208 0 -346 155t-138 382q0 231 136.5 381.5t347.5 150.5q209 0 337 -170v139h265v-1001zM872 500q0 132 -77.5 212.5t-198.5 80.5q-118 0 -193 -82.5t-75 -212.5q0 -128 76 -211.5t196 -83.5q121 0 196.5 83t75.5 214z" />
    <glyph glyph-name="b" unicode="b" horiz-adv-x="1260" 
d="M1208 500q0 -227 -137.5 -382t-345.5 -155q-210 0 -338 180v-143h-264v1618h270v-617q0 -28 -3 -76.5t-3 -62.5q128 170 338 170q211 0 347 -150.5t136 -381.5zM932 498q0 130 -75 212.5t-193 82.5q-121 0 -199 -80.5t-78 -212.5q0 -131 75.5 -214t196.5 -83t197 83.5
t76 211.5z" />
    <glyph glyph-name="c" unicode="c" horiz-adv-x="946" 
d="M856 27q-117 -62 -258 -62q-235 0 -391 152.5t-156 382.5q0 227 156.5 379.5t388.5 152.5q156 0 260 -61v-254q-95 86 -238 86q-120 0 -205 -89t-85 -216q0 -128 81 -213.5t205 -85.5q142 0 242 82v-254z" />
    <glyph glyph-name="d" unicode="d" horiz-adv-x="1260" 
d="M1137 0h-265v143q-128 -180 -337 -180q-208 0 -346 155t-138 382q0 231 136.5 381.5t347.5 150.5q209 0 337 -170q0 14 -3 62.5t-3 76.5v617h271v-1618zM872 500q0 132 -77.5 212.5t-198.5 80.5q-118 0 -193 -82.5t-75 -212.5q0 -128 76 -211.5t196 -83.5q121 0 196.5 83
t75.5 214z" />
    <glyph glyph-name="e" unicode="e" horiz-adv-x="1176" 
d="M1128 461h-804q17 -124 88 -192t178 -68q175 0 241 127l279 -45q-135 -316 -520 -316q-233 0 -389 159q-152 155 -152 376q0 220 152 374q156 158 389 158q231 0 387 -158q151 -154 151 -374v-41zM856 635q-51 176 -266 176q-186 0 -258 -176h524z" />
    <glyph glyph-name="f" unicode="f" horiz-adv-x="584" 
d="M584 766h-178v-766h-271v766h-129v235h129v267q0 203 76.5 295t251.5 92q47 0 121 -37v-223q-50 20 -109 20q-69 0 -69 -155v-259h178v-235z" />
    <glyph glyph-name="g" unicode="g" horiz-adv-x="1260" 
d="M1137 0q0 -586 -525 -586q-226 0 -368 116q-138 113 -158 302l291 25q20 -217 244 -217q251 0 251 323v178q-137 -168 -340 -168q-211 0 -346 148.5t-135 378.5q0 229 139.5 380.5t352.5 151.5q209 0 329 -172v141h265v-1001zM883 504q0 114 -77 200q-85 95 -216 95
q-118 0 -192 -89q-70 -85 -70 -214q0 -131 76 -210t202 -79q118 0 197.5 87t79.5 210z" />
    <glyph glyph-name="h" unicode="h" horiz-adv-x="1196" 
d="M1075 0h-270v575q0 232 -166 232q-109 0 -174 -70q-72 -78 -72 -225v-512h-270v1618h270v-750q111 164 316 164q366 0 366 -416v-616z" />
    <glyph glyph-name="i" unicode="i" horiz-adv-x="516" 
d="M422 1405q0 -68 -49 -117t-117 -49q-66 0 -115 49.5t-49 116.5q0 66 49 115t115 49q67 0 116.5 -49t49.5 -115zM393 0h-270v1001h270v-1001z" />
    <glyph glyph-name="j" unicode="j" horiz-adv-x="516" 
d="M422 1405q0 -68 -49 -117t-117 -49q-66 0 -115 49.5t-49 116.5q0 66 49 115t115 49q67 0 116.5 -49t49.5 -115zM393 -553h-270v1554h270v-1554z" />
    <glyph glyph-name="k" unicode="k" horiz-adv-x="1149" 
d="M1174 0h-375l-406 434v-434h-270v1618h270v-985l373 368h367l-486 -456z" />
    <glyph glyph-name="l" unicode="l" horiz-adv-x="528" 
d="M399 0h-270v1618h270v-1618z" />
    <glyph glyph-name="m" unicode="m" horiz-adv-x="1755" 
d="M1634 0h-270v575q0 232 -152 232q-198 0 -198 -272v-535h-271v575q0 232 -159 232q-191 0 -191 -295v-512h-270v1001h264v-133q117 165 289 164q111 -1 198 -57q76 -49 113 -125q106 180 311 182q336 4 336 -416v-616z" />
    <glyph glyph-name="n" unicode="n" horiz-adv-x="1194" 
d="M1073 0h-270v575q0 232 -189 232q-221 0 -221 -295v-512h-270v1001h264v-133q119 164 322 164q364 0 364 -416v-616z" />
    <glyph glyph-name="o" unicode="o" horiz-adv-x="1223" 
d="M1174 500q0 -220 -159 -376q-163 -159 -403 -159q-242 0 -404 159q-159 155 -159 376q0 220 159 374q162 158 404 158q241 0 403 -158q159 -154 159 -374zM893 500q0 121 -80.5 204.5t-200.5 83.5t-201 -83.5t-81 -204.5t81 -205t201 -84t200.5 84t80.5 205z" />
    <glyph glyph-name="p" unicode="p" horiz-adv-x="1260" 
d="M1208 502q0 -232 -136 -385.5t-347 -153.5q-205 0 -338 176q0 -14 3 -62.5t3 -76.5v-616h-270v1617h264v-143q123 174 338 174q208 0 345.5 -151.5t137.5 -378.5zM932 504q0 128 -76 208.5t-197 80.5q-122 0 -197 -80.5t-75 -210.5q0 -133 78 -216t199 -83q118 0 193 85
t75 216z" />
    <glyph glyph-name="q" unicode="q" horiz-adv-x="1260" 
d="M1137 -616h-271v616q0 28 3 76.5t3 62.5q-133 -176 -337 -176q-211 0 -347.5 153.5t-136.5 385.5q0 226 138 378t346 152q214 0 337 -174v143h265v-1617zM872 502q0 130 -75 210.5t-197 80.5q-121 0 -196.5 -80.5t-75.5 -208.5q0 -131 75 -216t193 -85q121 0 198.5 83
t77.5 216z" />
    <glyph glyph-name="r" unicode="r" horiz-adv-x="817" 
d="M799 999l-62 -243q-41 22 -96 22q-102 0 -167 -66q-77 -80 -77 -239v-473h-270v1001h264v-167q111 190 293 190q57 0 115 -25z" />
    <glyph glyph-name="s" unicode="s" horiz-adv-x="905" 
d="M838 317q0 -153 -116 -252.5t-294 -99.5q-225 0 -371 160l136 176q108 -121 239 -121q55 0 94 32t39 79q0 52 -42 80q-36 24 -165 67q-114 38 -169 91q-72 70 -72 186q0 142 109 231q105 86 261 86q185 0 293 -98l-121 -180q-92 73 -174 73q-106 0 -106 -86q0 -39 35 -64
q39 -28 145 -59q279 -81 279 -301z" />
    <glyph glyph-name="t" unicode="t" horiz-adv-x="557" 
d="M582 766h-174v-766h-273v766h-121v235h121v404h273v-404h174v-235z" />
    <glyph glyph-name="u" unicode="u" horiz-adv-x="1194" 
d="M1077 403q0 -209 -120 -322q-124 -116 -359 -116q-234 0 -357.5 118.5t-123.5 344.5v573h270v-544q0 -260 211 -260q209 0 209 258v546h270v-598z" />
    <glyph glyph-name="v" unicode="v" horiz-adv-x="1051" 
d="M1075 1001l-424 -1001h-250l-426 1001h295l256 -669l256 669h293z" />
    <glyph glyph-name="w" unicode="w" horiz-adv-x="1647" 
d="M1665 1001l-381 -1001h-240l-221 662l-221 -662h-240l-380 1001h288l222 -647l215 647h233l215 -647l221 647h289z" />
    <glyph glyph-name="x" unicode="x" horiz-adv-x="1223" 
d="M1247 0h-342l-295 352l-288 -352h-347l474 543l-381 458h333l209 -268l219 268h345l-392 -458z" />
    <glyph glyph-name="y" unicode="y" horiz-adv-x="1161" 
d="M1184 1001l-729 -1554h-291l295 631l-459 923h307l297 -632l285 632h295z" />
    <glyph glyph-name="z" unicode="z" horiz-adv-x="1001" 
d="M995 1001l-524 -765h490v-236h-961l526 766h-465v235h934z" />
    <glyph glyph-name="braceleft" unicode="{" horiz-adv-x="664" 
d="M588 -471h-123q-256 0 -256 254v489q0 236 -148 236v184q148 0 148 236v489q0 110 57 177q67 77 199 77h123v-207h-72q-76 0 -76 -108v-453q0 -249 -157 -303q157 -51 157 -303v-455q0 -108 76 -108h72v-205z" />
    <glyph glyph-name="bar" unicode="|" horiz-adv-x="961" 
d="M600 -299h-238v1954h238v-1954z" />
    <glyph glyph-name="braceright" unicode="}" horiz-adv-x="664" 
d="M602 508q-147 0 -147 -236v-489q0 -254 -254 -254h-123v205h67q76 0 76 108v455q0 251 162 303q-162 55 -162 303v453q0 108 -76 108h-67v207h123q131 0 197 -77q57 -67 57 -177v-489q0 -236 147 -236v-184z" />
    <glyph glyph-name="asciitilde" unicode="~" 
d="M1202 580q-164 -287 -340 -287q-99 0 -241 104q-148 109 -195 109q-85 0 -168 -172l-174 139q158 287 338 287q94 0 242 -109q139 -102 194 -102q78 0 168 170z" />
    <glyph glyph-name="currency" unicode="&#xa4;" 
d="M1196 203l-158 -158l-116 119q-123 -88 -279 -88q-160 0 -278 88l-117 -119l-158 158l119 116q-88 123 -88 279q0 161 88 279l-119 116l158 158l117 -119q123 88 278 88q161 0 279 -88l116 119l158 -158l-119 -116q88 -123 88 -279q0 -161 -88 -279zM967 598
q0 134 -95 229t-229 95t-229 -95t-95 -229t95 -229t229 -95t229 95t95 229z" />
    <glyph glyph-name="brokenbar" unicode="&#xa6;" horiz-adv-x="961" 
d="M600 852h-238v803h238v-803zM600 -299h-238v805h238v-805z" />
    <glyph glyph-name="section" unicode="&#xa7;" 
d="M1190 606q0 -183 -191 -338q93 -86 93 -225q0 -174 -143 -281q-137 -102 -347 -102q-190 0 -319 92q-136 98 -154 266l229 41q29 -194 252 -194q83 0 144 40q69 45 69 118q0 104 -172 190l-282 141q-138 69 -201 153q-70 94 -70 234q0 185 189 338q-92 85 -92 228
q0 174 127 281q122 102 311 102q176 0 293 -93q125 -99 137 -268l-236 -39q-30 195 -196 195q-64 0 -112 -40q-54 -45 -54 -118q0 -62 44 -106q36 -37 128 -84l281 -144q139 -71 202 -154q70 -93 70 -233zM946 563q0 144 -127 209l-383 195q-96 -72 -96 -183
q0 -146 127 -209l385 -192q94 73 94 180z" />
    <glyph glyph-name="copyright" unicode="&#xa9;" horiz-adv-x="1860" 
d="M1737 774q0 -333 -237 -570t-570 -237t-570 237t-237 570t237 570t570 237t570 -237t237 -570zM1579 774q0 268 -190.5 458.5t-458.5 190.5q-270 0 -462 -191t-192 -458q0 -269 192 -459t462 -190q269 0 459 190t190 459zM1343 627q-24 -147 -129 -230.5t-256 -83.5
q-192 0 -317 130t-125 335q0 206 121.5 335.5t327.5 129.5q142 0 246 -83t130 -222h-151q-33 162 -229 162q-135 0 -213 -92q-74 -88 -74 -228q0 -141 74 -228q78 -93 215 -93q193 0 227 168h153z" />
    <glyph glyph-name="guillemotleft" unicode="&#xab;" horiz-adv-x="1120" 
d="M1024 268l-158 -110l-362 497l362 498l158 -111l-285 -387zM580 268l-158 -110l-365 497l365 498l158 -111l-285 -387z" />
    <glyph glyph-name="logicalnot" unicode="&#xac;" 
d="M1165 264h-235v357h-811v233h1046v-590z" />
    <glyph glyph-name="registered" unicode="&#xae;" horiz-adv-x="1860" 
d="M1739 776q0 -335 -237 -572t-570 -237q-335 0 -573 237t-238 570q0 336 237.5 573.5t571.5 237.5q335 0 572 -237t237 -572zM1581 774q0 269 -190.5 461t-460.5 192t-462 -191.5t-192 -459.5q0 -269 192 -460t462 -191t460.5 190.5t190.5 458.5zM1325 969
q0 -226 -235 -244l219 -391h-176l-211 391h-152v-391h-156v878h402q309 0 309 -243zM1171 967q0 104 -170 104h-231v-217h234q98 0 135 28q32 25 32 85z" />
    <glyph glyph-name="degree" unicode="&#xb0;" horiz-adv-x="819" 
d="M717 1274q0 -127 -90 -217t-217 -90q-128 0 -218 90t-90 217t90 217t218 90q127 0 217 -90t90 -217zM582 1274q0 72 -50 122t-122 50t-122 -50t-50 -122t50 -122t122 -50t122 50t50 122z" />
    <glyph glyph-name="plusminus" unicode="&#xb1;" 
d="M1165 678h-403v-328h-236v328h-405v235h405v326h236v-326h403v-235zM1165 0h-1044v236h1044v-236z" />
    <glyph glyph-name="mu1" unicode="&#xb5;" 
d="M1155 -18h-276v129q-86 -129 -230 -129q-171 0 -233 102v-584h-289v1516h289v-545q0 -258 217 -258q123 0 177 69q58 73 58 248v486h287v-1034z" />
    <glyph glyph-name="mu1" unicode="&#x3bc;" 
d="M1155 -18h-276v129q-86 -129 -230 -129q-171 0 -233 102v-584h-289v1516h289v-545q0 -258 217 -258q123 0 177 69q58 73 58 248v486h287v-1034z" />
    <glyph glyph-name="paragraph" unicode="&#xb6;" 
d="M1196 1401h-129v-1696h-188v1694h-156v-1694h-188v916q-204 3 -327 141q-120 133 -120 340q0 196 135.5 336.5t325.5 140.5h647v-178z" />
    <glyph glyph-name="middot" unicode="&#xb7;" horiz-adv-x="643" 
d="M498 524q0 -71 -52 -122.5t-124 -51.5q-71 0 -123 51.5t-52 122.5q0 72 52 124t123 52q72 0 124 -52t52 -124z" />
    <glyph glyph-name="guillemotright" unicode="&#xbb;" horiz-adv-x="1120" 
d="M1063 655l-365 -497l-155 110l282 387l-282 387l157 111zM616 655l-362 -497l-158 110l285 387l-283 387l158 111z" />
    <glyph glyph-name="multiply" unicode="&#xd7;" 
d="M1100 238l-166 -166l-291 288l-291 -292l-168 165l293 293l-291 291l166 168l291 -293l291 291l166 -166l-289 -291z" />
    <glyph glyph-name="divide" unicode="&#xf7;" 
d="M774 934q0 -55 -38 -93t-93 -38q-54 0 -92.5 38t-38.5 93q0 54 38.5 92.5t92.5 38.5q55 0 93 -38.5t38 -92.5zM1165 408h-1046v235h1046v-235zM774 125q0 -55 -38 -93t-93 -38q-54 0 -92.5 38t-38.5 93q0 54 38.5 92.5t92.5 38.5q55 0 93 -38.5t38 -92.5z" />
    <glyph glyph-name="afii10023" unicode="&#x401;" horiz-adv-x="1090" 
d="M920 1786q0 -61 -46 -106.5t-108 -45.5q-63 0 -107.5 45t-44.5 107q0 63 44.5 108t107.5 45q62 0 108 -45t46 -108zM500 1786q0 -62 -44.5 -107t-107.5 -45q-62 0 -107.5 45.5t-45.5 106.5q0 63 45.5 108t107.5 45q63 0 107.5 -45t44.5 -108zM985 1292h-565v-352h543
v-252h-543v-436h563v-252h-852v1544h854v-252z" />
    <glyph glyph-name="afii10017" unicode="&#x410;" horiz-adv-x="1511" 
d="M1524 0h-303l-134 348h-663l-133 -348h-303l614 1544h307zM995 588l-239 622l-240 -622h479z" />
    <glyph glyph-name="afii10018" unicode="&#x411;" horiz-adv-x="1214" 
d="M1157 473q0 -253 -192 -376q-150 -97 -375 -97h-459v1544h913v-252h-624v-346h170q224 0 376 -99q191 -125 191 -374zM868 473q0 238 -299 238h-149v-473h149q153 0 223 51q76 56 76 184z" />
    <glyph glyph-name="afii10019" unicode="&#x412;" horiz-adv-x="1217" 
d="M1155 440q0 -212 -146 -326t-413 -114h-465v1544h408q241 0 369 -109q124 -107 124 -305q0 -95 -54 -176q-51 -77 -136 -120q140 -35 228 -149q85 -110 85 -245zM756 1104q0 207 -271 207h-65v-410h84q116 0 184 52.5t68 150.5zM866 455q0 227 -315 227h-131v-449h131
q315 0 315 222z" />
    <glyph glyph-name="afii10020" unicode="&#x413;" horiz-adv-x="958" 
d="M934 1292h-512v-1292h-289v1544h801v-252z" />
    <glyph glyph-name="afii10021" unicode="&#x414;" horiz-adv-x="1434" 
d="M1409 -307h-258v307h-893v-307h-258v559q215 8 215 475v817h1042v-1292h152v-559zM971 252v1040h-482v-651q0 -287 -131 -389h613z" />
    <glyph glyph-name="afii10022" unicode="&#x415;" horiz-adv-x="1090" 
d="M985 1292h-565v-352h543v-252h-543v-436h563v-252h-852v1544h854v-252z" />
    <glyph glyph-name="afii10024" unicode="&#x416;" horiz-adv-x="2001" 
d="M2013 0h-352l-516 750v-750h-287v750l-516 -750h-354l592 805l-549 739h334l493 -700v700h287v-700l491 700h334l-547 -739z" />
    <glyph glyph-name="afii10025" unicode="&#x417;" horiz-adv-x="1245" 
d="M1165 446q0 -215 -171 -353q-161 -130 -390 -130q-338 0 -553 287l162 176q135 -211 369 -211q130 0 204 72q68 67 68 172q0 109 -78 173q-81 66 -223 66h-162v236h160q121 0 189.5 55.5t68.5 149.5q0 198 -234 198q-200 0 -327 -149l-125 194q207 207 489 207
q225 0 362 -111q140 -115 140 -311q0 -113 -60.5 -202t-162.5 -129q274 -95 274 -390z" />
    <glyph glyph-name="afii10026" unicode="&#x418;" horiz-adv-x="1571" 
d="M1442 0h-289v1112l-733 -1112h-289v1544h289v-1106l733 1106h289v-1544z" />
    <glyph glyph-name="afii10027" unicode="&#x419;" horiz-adv-x="1571" 
d="M1163 1997q0 -152 -110 -259.5t-267 -107.5t-265.5 107t-108.5 260h213q0 -76 44.5 -125t116.5 -49q73 0 118.5 49t45.5 125h213zM1442 0h-289v1112l-733 -1112h-289v1544h289v-1106l733 1106h289v-1544z" />
    <glyph glyph-name="afii10028" unicode="&#x41a;" horiz-adv-x="1370" 
d="M1395 0h-379l-596 754v-754h-289v1544h289v-684l579 684h365l-657 -729z" />
    <glyph glyph-name="afii10029" unicode="&#x41b;" horiz-adv-x="1382" 
d="M1247 0h-289v1290h-454v-780q0 -257 -64 -373q-85 -153 -309 -153q-74 0 -154 20l27 260q56 -20 94 -20q70 0 96 51q29 59 29 229v1020h1024v-1544z" />
    <glyph glyph-name="afii10030" unicode="&#x41c;" horiz-adv-x="1806" 
d="M1806 0h-286l-150 1034l-344 -1034h-246l-344 1034l-149 -1034h-287l246 1544h311l346 -1163l346 1163h312z" />
    <glyph glyph-name="afii10031" unicode="&#x41d;" horiz-adv-x="1503" 
d="M1372 0h-289v690h-663v-690h-289v1544h289v-608h663v608h289v-1544z" />
    <glyph glyph-name="afii10032" unicode="&#x41e;" horiz-adv-x="1769" 
d="M1714 772q0 -338 -241 -573.5t-588 -235.5t-588.5 235.5t-241.5 573.5t241.5 573.5t588.5 235.5t588 -235.5t241 -573.5zM1419 772q0 225 -154 379t-380 154q-224 0 -378.5 -154.5t-154.5 -378.5t154.5 -378t378.5 -154q226 0 380 154t154 378z" />
    <glyph glyph-name="afii10033" unicode="&#x41f;" horiz-adv-x="1495" 
d="M1364 0h-289v1292h-655v-1292h-289v1544h1233v-1544z" />
    <glyph glyph-name="afii10034" unicode="&#x420;" horiz-adv-x="1174" 
d="M1128 1075q0 -239 -138.5 -364t-399.5 -125h-170v-586h-289v1544h420q577 0 577 -469zM838 1067q0 236 -326 236h-92v-476h102q316 0 316 240z" />
    <glyph glyph-name="afii10035" unicode="&#x421;" horiz-adv-x="1356" 
d="M1257 55q-195 -92 -376 -92q-365 0 -594.5 226.5t-229.5 582.5q0 350 243 582q237 227 583 227q207 0 372 -92v-344q-150 162 -383 162q-221 0 -367 -146q-151 -151 -151 -389q0 -243 150 -391q144 -143 368 -143q221 0 385 161v-344z" />
    <glyph glyph-name="afii10036" unicode="&#x422;" horiz-adv-x="1030" 
d="M1018 1292h-359v-1292h-288v1292h-359v252h1006v-252z" />
    <glyph glyph-name="afii10037" unicode="&#x423;" horiz-adv-x="1358" 
d="M1389 1544l-742 -1544h-317l235 471l-573 1073h342l387 -764l348 764h320z" />
    <glyph glyph-name="afii10038" unicode="&#x424;" horiz-adv-x="1784" 
d="M1729 807q0 -284 -178 -439q-166 -145 -449 -145h-68v-223h-286v223h-68q-283 0 -449 145q-178 155 -178 439q0 283 178 439q167 147 449 147h68v188h286v-188h68q282 0 449 -147q178 -156 178 -439zM1438 807q0 352 -365 352h-51v-702h51q365 0 365 350zM760 457v702
h-51q-365 0 -365 -352q0 -350 365 -350h51z" />
    <glyph glyph-name="afii10039" unicode="&#x425;" horiz-adv-x="1389" 
d="M1401 0h-340l-367 575l-366 -575h-340l540 815l-458 729h348l276 -487l277 487h348l-459 -729z" />
    <glyph glyph-name="afii10040" unicode="&#x426;" horiz-adv-x="1497" 
d="M1493 -307h-258v307h-1100v1544h289v-1292h635v1292h289v-1292h145v-559z" />
    <glyph glyph-name="afii10041" unicode="&#x427;" horiz-adv-x="1337" 
d="M1204 0h-289v670q-141 -52 -321 -52q-496 0 -496 484v442h287v-401q0 -143 53 -206t180 -63q174 0 297 50v620h289v-1544z" />
    <glyph glyph-name="afii10042" unicode="&#x428;" horiz-adv-x="2089" 
d="M1956 0h-1823v1544h289v-1292h479v1292h287v-1292h479v1292h289v-1544z" />
    <glyph glyph-name="afii10043" unicode="&#x429;" horiz-adv-x="2109" 
d="M2103 -307h-260v307h-1708v1544h289v-1292h479v1292h287v-1292h479v1292h289v-1292h145v-559z" />
    <glyph glyph-name="afii10044" unicode="&#x42a;" horiz-adv-x="1389" 
d="M1339 473q0 -253 -192 -376q-150 -97 -375 -97h-459v1290h-301v254h590v-598h170q224 0 376 -99q191 -125 191 -374zM1053 473q0 238 -299 238h-152v-473h152q153 0 223 51q76 56 76 184z" />
    <glyph glyph-name="afii10045" unicode="&#x42b;" horiz-adv-x="1657" 
d="M1524 0h-289v1544h289v-1544zM1141 473q0 -253 -193 -376q-150 -97 -375 -97h-440v1544h289v-598h151q223 0 375 -99q193 -125 193 -374zM852 473q0 238 -297 238h-133v-473h133q153 0 222 51q75 56 75 184z" />
    <glyph glyph-name="afii10046" unicode="&#x42c;" horiz-adv-x="1202" 
d="M1157 473q0 -253 -192 -376q-150 -97 -375 -97h-459v1544h289v-598h170q224 0 376 -99q191 -125 191 -374zM868 473q0 238 -299 238h-149v-473h149q153 0 223 51q76 56 76 184z" />
    <glyph glyph-name="afii10047" unicode="&#x42d;" horiz-adv-x="1339" 
d="M1278 784q0 -387 -228 -611q-213 -210 -550 -210q-217 0 -406 107v299q169 -154 398 -154q218 0 349 128q128 125 140 339h-627v231h619q-27 191 -159 305q-130 111 -316 111q-244 0 -402 -149v295q181 106 430 106q331 0 541.5 -220.5t210.5 -576.5z" />
    <glyph glyph-name="afii10048" unicode="&#x42e;" horiz-adv-x="2212" 
d="M2154 770q0 -339 -226.5 -574t-557.5 -235q-308 0 -527 210q-217 207 -245 517h-178v-688h-289v1544h289v-616h186q51 283 262 465q215 186 502 186q331 0 557.5 -235t226.5 -574zM1866 770q0 225 -142 379t-354 154t-351.5 -153.5t-139.5 -379.5t139.5 -379t351.5 -153
t354 153.5t142 378.5z" />
    <glyph glyph-name="afii10049" unicode="&#x42f;" horiz-adv-x="1229" 
d="M1098 0h-287v610h-68l-397 -610h-326l439 635q-168 32 -264.5 143.5t-96.5 276.5q0 262 189 390q144 99 354 99h457v-1544zM811 819v477h-123q-303 0 -303 -233q0 -244 317 -244h109z" />
    <glyph glyph-name="afii10065" unicode="&#x430;" horiz-adv-x="1260" 
d="M1137 0h-265v143q-128 -180 -337 -180q-208 0 -346 155t-138 382q0 231 136.5 381.5t347.5 150.5q209 0 337 -170v139h265v-1001zM872 500q0 132 -77.5 212.5t-198.5 80.5q-118 0 -193 -82.5t-75 -212.5q0 -128 76 -211.5t196 -83.5q121 0 196.5 83t75.5 214z" />
    <glyph glyph-name="afii10066" unicode="&#x431;" horiz-adv-x="1223" 
d="M1174 500q0 -229 -139 -378q-149 -159 -398 -159q-322 0 -460 234q-95 163 -95 426q0 458 174 672q142 175 383 175q160 0 218 34q54 31 54 114h238q0 -352 -451 -352q-163 0 -250 -93q-95 -103 -120 -339q2 0 4 2q123 170 356 170q223 0 357 -145q129 -140 129 -361z
M897 487q0 301 -264 301q-120 0 -196.5 -81.5t-76.5 -219.5q0 -136 71 -215q73 -82 202 -82q131 0 202 92q62 80 62 205z" />
    <glyph glyph-name="afii10067" unicode="&#x432;" horiz-adv-x="1067" 
d="M1016 281q0 -113 -84 -190q-99 -91 -285 -91h-524v1001h444q196 0 294 -80q83 -67 83 -173q0 -156 -137 -197q209 -59 209 -270zM698 705q0 102 -151 102h-160v-211h141q79 0 126 32q44 31 44 77zM739 303q0 125 -184 125h-168v-233h188q164 0 164 108z" />
    <glyph glyph-name="afii10068" unicode="&#x433;" horiz-adv-x="786" 
d="M762 772h-367v-772h-270v1001h637v-229z" />
    <glyph glyph-name="afii10069" unicode="&#x434;" horiz-adv-x="1147" 
d="M1135 -233h-248v233h-639v-233h-248v462q164 0 164 256v516h852v-772h119v-462zM752 229v543h-332v-297q0 -187 -76 -246h408z" />
    <glyph glyph-name="afii10070" unicode="&#x435;" horiz-adv-x="1176" 
d="M1128 461h-804q17 -124 88 -192t178 -68q175 0 241 127l279 -45q-135 -316 -520 -316q-233 0 -389 159q-152 155 -152 376q0 220 152 374q156 158 389 158q231 0 387 -158q151 -154 151 -374v-41zM856 635q-51 176 -266 176q-186 0 -258 -176h524z" />
    <glyph glyph-name="afii10072" unicode="&#x436;" horiz-adv-x="1622" 
d="M1634 0h-348l-342 465v-465h-264v465l-340 -465h-352l438 524l-393 477h332l315 -430v430h264v-430l313 430h334l-393 -477z" />
    <glyph glyph-name="afii10073" unicode="&#x437;" horiz-adv-x="963" 
d="M911 283q0 -150 -124 -237q-117 -81 -306 -81q-281 0 -436 172l123 174q123 -137 287 -137q176 0 176 133q0 113 -170 113h-133v190h125q168 0 168 113q0 111 -170 111q-163 0 -267 -111l-108 168q160 141 403 141q189 0 291 -75q98 -74 98 -205q0 -156 -141 -222
q184 -74 184 -247z" />
    <glyph glyph-name="afii10074" unicode="&#x438;" horiz-adv-x="1219" 
d="M1096 0h-265v633l-444 -633h-264v1001h264v-632l444 632h265v-1001z" />
    <glyph glyph-name="afii10075" unicode="&#x439;" horiz-adv-x="1219" 
d="M907 1378q0 -120 -86.5 -203t-208.5 -83q-125 0 -211 82.5t-86 203.5h172q0 -59 34.5 -96t90.5 -37q55 0 89 37t34 96h172zM1096 0h-265v633l-444 -633h-264v1001h264v-632l444 632h265v-1001z" />
    <glyph glyph-name="afii10076" unicode="&#x43a;" horiz-adv-x="1100" 
d="M1116 0h-348l-373 446v-446h-270v1001h270v-411l346 411h342l-446 -475z" />
    <glyph glyph-name="afii10077" unicode="&#x43b;" horiz-adv-x="1124" 
d="M995 0h-270v772h-303v-436q0 -361 -270 -361q-80 0 -172 25l20 225q32 -16 76 -16q47 0 67 30q23 35 23 132v630h829v-1001z" />
    <glyph glyph-name="afii10078" unicode="&#x43c;" horiz-adv-x="1364" 
d="M1346 0h-263l-100 563l-190 -563h-222l-190 563l-100 -563h-263l191 1001h264l209 -614l209 614h264z" />
    <glyph glyph-name="afii10079" unicode="&#x43d;" horiz-adv-x="1198" 
d="M1075 0h-270v414h-412v-414h-270v1001h270v-376h412v376h270v-1001z" />
    <glyph glyph-name="afii10080" unicode="&#x43e;" horiz-adv-x="1223" 
d="M1174 500q0 -220 -159 -376q-163 -159 -403 -159q-242 0 -404 159q-159 155 -159 376q0 220 159 374q162 158 404 158q241 0 403 -158q159 -154 159 -374zM893 500q0 121 -80.5 204.5t-200.5 83.5t-201 -83.5t-81 -204.5t81 -205t201 -84t200.5 84t80.5 205z" />
    <glyph glyph-name="afii10081" unicode="&#x43f;" horiz-adv-x="1182" 
d="M1059 0h-271v772h-395v-772h-270v1001h936v-1001z" />
    <glyph glyph-name="afii10082" unicode="&#x440;" horiz-adv-x="1260" 
d="M1208 502q0 -232 -136 -385.5t-347 -153.5q-205 0 -338 176q0 -14 3 -62.5t3 -76.5v-616h-270v1617h264v-143q123 174 338 174q208 0 345.5 -151.5t137.5 -378.5zM932 504q0 128 -76 208.5t-197 80.5q-122 0 -197 -80.5t-75 -210.5q0 -133 78 -216t199 -83q118 0 193 85
t75 216z" />
    <glyph glyph-name="afii10083" unicode="&#x441;" horiz-adv-x="946" 
d="M856 27q-117 -62 -258 -62q-235 0 -391 152.5t-156 382.5q0 227 156.5 379.5t388.5 152.5q156 0 260 -61v-254q-95 86 -238 86q-120 0 -205 -89t-85 -216q0 -128 81 -213.5t205 -85.5q142 0 242 82v-254z" />
    <glyph glyph-name="afii10084" unicode="&#x442;" horiz-adv-x="823" 
d="M809 772h-260v-772h-273v772h-262v229h795v-229z" />
    <glyph glyph-name="afii10085" unicode="&#x443;" horiz-adv-x="1147" 
d="M1178 1001l-729 -1554h-291l295 631l-459 923h307l297 -632l285 632h295z" />
    <glyph glyph-name="afii10086" unicode="&#x444;" horiz-adv-x="1683" 
d="M1632 508q0 -238 -108 -376q-115 -148 -330 -148q-54 0 -116 22q-67 24 -101 60v-619h-270v619q-33 -36 -101 -60q-62 -22 -117 -22q-215 0 -330 148q-108 138 -108 376t106 376q114 148 326 148q116 0 224 -84v670h270v-670q108 84 223 84q212 0 326 -148
q106 -138 106 -376zM1360 508q0 130 -53 210q-55 85 -152 85q-83 0 -182 -66v-461q69 -63 186 -63q98 0 151 84q50 78 50 211zM711 276v461q-99 66 -183 66q-97 0 -152 -85q-52 -79 -52 -210q0 -133 49 -211q53 -84 151 -84q118 0 187 63z" />
    <glyph glyph-name="afii10087" unicode="&#x445;" horiz-adv-x="1223" 
d="M1247 0h-342l-295 352l-288 -352h-347l474 543l-381 458h333l209 -268l219 268h345l-392 -458z" />
    <glyph glyph-name="afii10088" unicode="&#x446;" horiz-adv-x="1174" 
d="M1161 -233h-248v233h-788v1001h270v-772h379v772h270v-772h117v-462z" />
    <glyph glyph-name="afii10089" unicode="&#x447;" horiz-adv-x="1081" 
d="M956 0h-270v391q-124 -49 -242 -49q-346 0 -346 303v356h264v-305q0 -143 142 -143q108 0 182 45v403h270v-1001z" />
    <glyph glyph-name="afii10090" unicode="&#x448;" horiz-adv-x="1718" 
d="M1593 0h-1468v1001h266v-772h334v772h266v-772h336v772h266v-1001z" />
    <glyph glyph-name="afii10091" unicode="&#x449;" horiz-adv-x="1722" 
d="M1710 -233h-248v233h-1337v1001h266v-772h334v772h266v-772h336v772h266v-772h117v-462z" />
    <glyph glyph-name="afii10092" unicode="&#x44a;" horiz-adv-x="1124" 
d="M1077 319q0 -159 -117 -242q-108 -77 -296 -77h-418v776h-228v225h494v-360h150q189 0 298 -79q117 -84 117 -243zM807 322q0 120 -162 120h-133v-241h133q162 0 162 121z" />
    <glyph glyph-name="afii10093" unicode="&#x44b;" horiz-adv-x="1432" 
d="M1307 0h-269v1001h269v-1001zM946 319q0 -159 -118 -242q-108 -77 -296 -77h-407v1001h268v-360h137q189 0 299 -79q117 -84 117 -243zM674 322q0 120 -160 120h-121v-241h119q162 0 162 121z" />
    <glyph glyph-name="afii10094" unicode="&#x44c;" horiz-adv-x="1008" 
d="M961 319q0 -159 -118 -242q-108 -77 -296 -77h-422v1001h270v-360h150q189 0 299 -79q117 -84 117 -243zM688 322q0 120 -160 120h-133v-241h133q160 0 160 121z" />
    <glyph glyph-name="afii10095" unicode="&#x44d;" horiz-adv-x="977" 
d="M926 502q0 -227 -134 -378q-144 -161 -382 -161q-225 0 -318 80v233q106 -106 303 -106q115 0 192 70q73 67 87 172h-379v192h373q-21 99 -92 161q-76 66 -183 66q-194 0 -301 -94v234q129 63 318 63q221 0 367 -147q149 -150 149 -385z" />
    <glyph glyph-name="afii10096" unicode="&#x44e;" horiz-adv-x="1634" 
d="M1585 500q0 -230 -153 -383.5t-388 -153.5q-216 0 -362 127q-142 123 -170 322h-117v-412h-270v1001h270v-387h119q36 187 177 301q145 117 353 117q240 0 390.5 -150t150.5 -382zM1311 500q0 142 -71 222.5t-196 80.5t-196.5 -80.5t-71.5 -222.5q0 -143 71.5 -223
t196.5 -80t196 79.5t71 223.5z" />
    <glyph glyph-name="afii10097" unicode="&#x44f;" horiz-adv-x="1053" 
d="M930 0h-273v371l-84 -6l-217 -365h-307l256 383q-225 63 -225 299q0 319 434 319h416v-1001zM657 545v254h-139q-170 0 -170 -127t168 -127h141z" />
    <glyph glyph-name="afii10071" unicode="&#x451;" horiz-adv-x="1176" 
d="M993 1296q0 -64 -47 -110.5t-112 -46.5t-112.5 46.5t-47.5 110.5q0 66 47.5 112t112.5 46t112 -46t47 -112zM514 1296q0 -64 -46.5 -110.5t-111.5 -46.5t-112 46.5t-47 110.5q0 66 47 112t112 46t111.5 -46t46.5 -112zM1128 461h-804q17 -124 88 -192t178 -68
q175 0 241 127l279 -45q-135 -316 -520 -316q-233 0 -389 159q-152 155 -152 376q0 220 152 374q156 158 389 158q231 0 387 -158q151 -154 151 -374v-41zM856 635q-51 176 -266 176q-176 0 -248 -176h514z" />
    <glyph glyph-name="endash" unicode="&#x2013;" horiz-adv-x="1024" 
d="M1030 545h-1036v223h1036v-223z" />
    <glyph glyph-name="emdash" unicode="&#x2014;" horiz-adv-x="2048" 
d="M2054 545h-2060v223h2060v-223z" />
    <glyph glyph-name="quoteleft" unicode="&#x2018;" horiz-adv-x="657" 
d="M575 1536l-243 -614l-248 32l322 609z" />
    <glyph glyph-name="quoteright" unicode="&#x2019;" horiz-adv-x="657" 
d="M571 1528l-319 -606l-170 24l242 617z" />
    <glyph glyph-name="quotesinglbase" unicode="&#x201a;" horiz-adv-x="625" 
d="M571 276l-321 -606l-170 27l244 614z" />
    <glyph glyph-name="quotedblleft" unicode="&#x201c;" horiz-adv-x="1077" 
d="M999 1536l-243 -614l-248 32l319 609zM575 1536l-243 -614l-248 32l322 609z" />
    <glyph glyph-name="quotedblright" unicode="&#x201d;" horiz-adv-x="1077" 
d="M991 1528l-319 -606l-172 24l243 617zM567 1528l-319 -606l-170 24l241 617z" />
    <glyph glyph-name="quotedblbase" unicode="&#x201e;" horiz-adv-x="1044" 
d="M989 276l-319 -606l-170 27l241 614zM565 276l-319 -606l-170 27l241 614z" />
    <glyph glyph-name="dagger" unicode="&#x2020;" 
d="M1137 891h-367v-1210h-256v1210h-364v229h364v498h256v-498h367v-229z" />
    <glyph glyph-name="bullet" unicode="&#x2022;" 
d="M1032 772q0 -161 -113 -274t-274 -113t-274 113t-113 274t113 274t274 113t274 -113t113 -274z" />
    <glyph glyph-name="ellipsis" unicode="&#x2026;" horiz-adv-x="2048" 
d="M1882 137q0 -71 -52 -122.5t-124 -51.5q-71 0 -122.5 51.5t-51.5 122.5q0 72 51.5 123t122.5 51q72 0 124 -51t52 -123zM1200 137q0 -71 -51 -122.5t-123 -51.5t-123 51.5t-51 122.5q0 72 51 123t123 51t123 -51t51 -123zM520 137q0 -71 -51 -122.5t-123 -51.5t-124 51.5
t-52 122.5q0 72 52 123t124 51t123 -51t51 -123z" />
    <glyph glyph-name="perthousand" unicode="&#x2030;" horiz-adv-x="2513" 
d="M2470 330q0 -160 -98 -265.5t-250 -105.5t-255.5 104.5t-103.5 258.5q0 160 101.5 266t255.5 106q148 0 249 -105t101 -259zM750 1227q0 -160 -98.5 -264.5t-250.5 -104.5t-255 103.5t-103 257.5q0 158 101.5 263t254.5 105q148 0 249.5 -104t101.5 -256zM1352 1587
l-852 -1628h-174l858 1628h168zM1628 330q0 -160 -98 -265.5t-250 -105.5t-255 104.5t-103 258.5q0 160 101.5 266t254.5 106q148 0 249 -105t101 -259zM2275 319q0 86 -45 145.5t-108 59.5q-68 0 -115 -60.5t-47 -144.5q0 -83 46.5 -137.5t113.5 -54.5q63 0 109 56.5
t46 135.5zM555 1217q0 84 -45.5 143t-108.5 59q-69 0 -115 -56.5t-46 -141.5q0 -81 46.5 -138t112.5 -57q63 0 109.5 56t46.5 135zM1434 319q0 86 -45.5 145.5t-108.5 59.5q-68 0 -115 -60.5t-47 -144.5q0 -83 46.5 -137.5t113.5 -54.5q63 0 109.5 56.5t46.5 135.5z" />
    <glyph glyph-name="guilsinglleft" unicode="&#x2039;" horiz-adv-x="748" 
d="M614 268l-157 -110l-367 497l365 498l157 -111l-284 -387z" />
    <glyph glyph-name="guilsinglright" unicode="&#x203a;" horiz-adv-x="748" 
d="M657 655l-362 -497l-158 110l285 387l-283 387l158 111z" />
    <glyph glyph-name="afii61352" unicode="&#x2116;" horiz-adv-x="2439" 
d="M2322 696q0 -160 -109 -268.5t-269 -108.5q-161 0 -269 108.5t-108 268.5q0 161 108 270t269 109q160 0 269 -109t109 -270zM2322 0h-755v205h755v-205zM1425 0h-270l-754 1075v-1075h-270v1544h270l754 -1077v1077h270v-1544zM2118 696q0 84 -50 138.5t-124 54.5
t-124.5 -54.5t-50.5 -138.5q0 -81 50.5 -134.5t124.5 -53.5q75 0 124.5 53.5t49.5 134.5z" />
    <glyph glyph-name="trademark" unicode="&#x2122;" horiz-adv-x="1991" 
d="M1909 698h-160v711l-279 -711h-94l-276 711v-711h-162v846h256l231 -553l230 553h254v-846zM797 1401h-281v-703h-160v703h-278v143h719v-143z" />
    <glyph glyph-name="minus" unicode="&#xad;" 
d="M1165 410h-1046v235h1046v-235z" />
    <glyph glyph-name="minus" unicode="&#x2212;" 
d="M1165 410h-1046v235h1046v-235z" />
    <glyph glyph-name="periodcentered" unicode="&#x2219;" horiz-adv-x="643" 
d="M498 524q0 -71 -52 -122.5t-124 -51.5q-71 0 -123 51.5t-52 122.5q0 72 52 124t123 52q72 0 124 -52t52 -124z" />
    <glyph glyph-name="glyph197" horiz-adv-x="1024" 
 />
    </font>
</defs>
</svg>
